<?xml version="1.0" encoding="utf-8"?>
<!-- Generator: Adobe Illustrator 23.0.1, SVG Export Plug-In . SVG Version: 6.00 Build 0)  -->
<svg version="1.1" id="Layer_1" xmlns="http://www.w3.org/2000/svg" xmlns:xlink="http://www.w3.org/1999/xlink" x="0px" y="0px"
	 viewBox="0 0 72 72" style="enable-background:new 0 0 72 72;" xml:space="preserve">
<style type="text/css">
	.st0{fill:#FFFFFF;}
	.st1{fill:#006997;}
	.st2{fill:#666666;}
</style>
<g>
	<path class="st0" d="M36.02,3.02C18.01,3.02,3.4,17.63,3.4,35.64c0,18.02,14.6,32.62,32.62,32.62s32.62-14.6,32.62-32.62
		C68.64,17.63,54.04,3.02,36.02,3.02L36.02,3.02z"/>
	<path class="st1" d="M36.02,3.02c-0.13,0-0.25,0.01-0.38,0.01v32.65H3.4c0.02,18,14.62,32.58,32.62,32.58
		c18.02,0,32.62-14.6,32.62-32.62C68.64,17.63,54.04,3.02,36.02,3.02z"/>
	<path d="M36.02,6.02c16.33,0,29.62,13.29,29.62,29.62S52.35,65.26,36.02,65.26S6.4,51.97,6.4,35.64S19.69,6.02,36.02,6.02
		 M36.02,3.02C18.01,3.02,3.4,17.63,3.4,35.64c0,18.02,14.6,32.62,32.62,32.62s32.62-14.6,32.62-32.62
		C68.64,17.63,54.04,3.02,36.02,3.02L36.02,3.02z"/>
	<rect x="7.99" y="33.4" class="st2" width="7.73" height="4.28"/>
	<rect x="56.41" y="33.4" class="st0" width="7.73" height="4.28"/>
	<rect x="33.67" y="6.66" class="st2" width="4.28" height="7.73"/>
	<rect x="33.67" y="56.65" class="st0" width="4.28" height="7.73"/>
</g>
</svg>
