<?xml version="1.0" encoding="utf-8"?>
<!-- Generator: Adobe Illustrator 23.0.1, SVG Export Plug-In . SVG Version: 6.00 Build 0)  -->
<svg version="1.1" id="Layer_1" xmlns="http://www.w3.org/2000/svg" xmlns:xlink="http://www.w3.org/1999/xlink" x="0px" y="0px"
	 viewBox="0 0 72 72" style="enable-background:new 0 0 72 72;" xml:space="preserve">
<style type="text/css">
	.st0{fill:#F6BD0C;}
	.st1{fill:#666666;}
	.st2{fill:#333333;}
</style>
<g>
	<path class="st0" d="M36.02,6.02 M36.02,3.02C18.01,3.02,3.4,17.63,3.4,35.64c0,18.02,14.6,32.62,32.62,32.62
		c18.02,0,32.62-14.6,32.62-32.62C68.64,17.63,54.04,3.02,36.02,3.02L36.02,3.02z"/>
	<path d="M36.02,6.02c16.33,0,29.62,13.29,29.62,29.62S52.35,65.26,36.02,65.26C19.69,65.26,6.4,51.97,6.4,35.64
		S19.69,6.02,36.02,6.02 M36.02,3.02C18.01,3.02,3.4,17.63,3.4,35.64c0,18.02,14.6,32.62,32.62,32.62
		c18.02,0,32.62-14.6,32.62-32.62C68.64,17.63,54.04,3.02,36.02,3.02L36.02,3.02z"/>
	<rect x="7.99" y="33.4" class="st1" width="7.73" height="4.28"/>
	<polyline class="st2" points="35.63,37.78 56.73,16.68 53.7,13.65 35.02,32.33 23.03,25.41 20.89,29.12 	"/>
	<rect x="56.41" y="33.4" class="st1" width="7.73" height="4.28"/>
	<rect x="33.67" y="6.66" class="st1" width="4.28" height="7.73"/>
	<rect x="33.67" y="56.65" class="st1" width="4.28" height="7.73"/>
</g>
</svg>
