<?xml version="1.0" encoding="utf-8"?>
<!-- Generator: Adobe Illustrator 14.0.0, SVG Export Plug-In  -->
<!DOCTYPE svg PUBLIC "-//W3C//DTD SVG 1.1//EN" "http://www.w3.org/Graphics/SVG/1.1/DTD/svg11.dtd" [
	<!ENTITY ns_flows "http://ns.adobe.com/Flows/1.0/">
]>
<svg version="1.1"
	 xmlns="http://www.w3.org/2000/svg" xmlns:xlink="http://www.w3.org/1999/xlink" xmlns:a="http://ns.adobe.com/AdobeSVGViewerExtensions/3.0/"
	 x="0px" y="0px" width="72px" height="72px" viewBox="-1.084 -12.973 72 72" enable-background="new -1.084 -12.973 72 72"
	 xml:space="preserve">
<defs>
</defs>
<path fill-rule="evenodd" clip-rule="evenodd" fill="#0E5DAB" d="M65.49,30.282c-20.02-0.862-38.106,1.573-44.506,5.985
	c-6.4,4.408,14.329,7.992,27.885,8.271c0,0,0.385-0.023,0.263,0.082c-0.081,0.071-0.45,0.057-0.45,0.057
	c-3.504,0.052-7.061,0.043-10.61-0.027c-26.612-0.547-43.049-4.53-36.713-8.898c6.336-4.367,32.292-7.705,57.907-6.543
	C67.993,29.605,72.172,30.574,65.49,30.282L65.49,30.282z"/>
<path fill-rule="evenodd" clip-rule="evenodd" fill="#FF1D25" d="M20.136,23.056c0,0-1.999,2.396-1.625,5.271L2.478,19.367
	L20.136,23.056L20.136,23.056z"/>
<path fill-rule="evenodd" clip-rule="evenodd" fill="#FF1D25" d="M24.671,18.482c0,0-2.884,1.567-4.089,3.701l-9.194-15.9
	L24.671,18.482L24.671,18.482z"/>
<path fill-rule="evenodd" clip-rule="evenodd" fill="#FF1D25" d="M31.511,17.394c0,0-2.99-0.433-5.458,0.629L26.738,0L31.511,17.394
	L31.511,17.394z"/>
<path fill-rule="evenodd" clip-rule="evenodd" fill="#FF1D25" d="M37.999,20.302c0,0-1.909-2.162-4.887-2.505l10.58-14.604
	L37.999,20.302L37.999,20.302z"/>
<path fill-rule="evenodd" clip-rule="evenodd" fill="#FF1D25" d="M41.562,26.174c0,0-0.555-2.841-2.896-4.667l16.596-7.058
	L41.562,26.174L41.562,26.174z"/>
</svg>
