<?xml version="1.0" encoding="utf-8"?>
<!-- Generator: Adobe Illustrator 14.0.0, SVG Export Plug-In  -->
<!DOCTYPE svg PUBLIC "-//W3C//DTD SVG 1.1//EN" "http://www.w3.org/Graphics/SVG/1.1/DTD/svg11.dtd" [
	<!ENTITY ns_flows "http://ns.adobe.com/Flows/1.0/">
]>
<svg version="1.1"
	 xmlns="http://www.w3.org/2000/svg" xmlns:xlink="http://www.w3.org/1999/xlink" xmlns:a="http://ns.adobe.com/AdobeSVGViewerExtensions/3.0/"
	 x="0px" y="0px" width="72px" height="72px" viewBox="-0.678 -0.549 72 72" enable-background="new -0.678 -0.549 72 72"
	 xml:space="preserve">
<defs>
</defs>
<path fill="#0078D6" d="M32.346,5.693C45.026,3.623,57.963,1.811,70.643,0v0.517v33.122c-12.68,0-25.617,0.26-38.297,0.26V5.693z"/>
<path fill="#0078D6" d="M0,10.092C9.574,8.539,19.149,7.246,28.982,6.21v27.689c-9.833,0-19.408,0.259-28.982,0.259V10.092z"/>
<path fill="#0078D6" d="M0,37.003c9.574,0,19.149,0.26,28.982,0v27.947C19.149,63.656,9.574,62.363,0,61.069V37.003z"/>
<path fill="#0078D6" d="M32.346,37.263h38.297V69.35v1.552c-12.68-2.07-25.617-3.622-38.297-5.435V37.263z"/>
</svg>
