<?xml version="1.0" encoding="UTF-8" standalone="no"?>
<svg
   xmlns:dc="http://purl.org/dc/elements/1.1/"
   xmlns:cc="http://creativecommons.org/ns#"
   xmlns:rdf="http://www.w3.org/1999/02/22-rdf-syntax-ns#"
   xmlns:svg="http://www.w3.org/2000/svg"
   xmlns="http://www.w3.org/2000/svg"
   xmlns:sodipodi="http://sodipodi.sourceforge.net/DTD/sodipodi-0.dtd"
   xmlns:inkscape="http://www.inkscape.org/namespaces/inkscape"
   aria-hidden="true"
   focusable="false"
   data-prefix="far"
   data-icon="copyright"
   class="svg-inline--fa fa-copyright fa-w-16"
   role="img"
   viewBox="0 0 8.0000002 8.0000002"
   version="1.1"
   id="svg4"
   sodipodi:docname="copyright-regular-8.svg"
   width="0.083333336in"
   height="0.083333336in"
   inkscape:version="1.0.2-2 (e86c870879, 2021-01-15)">
  <metadata
     id="metadata10">
    <rdf:RDF>
      <cc:Work
         rdf:about="">
        <dc:format>image/svg+xml</dc:format>
        <dc:type
           rdf:resource="http://purl.org/dc/dcmitype/StillImage" />
        <dc:title></dc:title>
      </cc:Work>
    </rdf:RDF>
  </metadata>
  <defs
     id="defs8" />
  <sodipodi:namedview
     pagecolor="#ffffff"
     bordercolor="#666666"
     borderopacity="1"
     objecttolerance="10"
     gridtolerance="10"
     guidetolerance="10"
     inkscape:pageopacity="0"
     inkscape:pageshadow="2"
     inkscape:window-width="1760"
     inkscape:window-height="920"
     id="namedview6"
     showgrid="false"
     inkscape:zoom="11.313708"
     inkscape:cx="-25.717125"
     inkscape:cy="12.5625"
     inkscape:window-x="138"
     inkscape:window-y="0"
     inkscape:window-maximized="0"
     inkscape:current-layer="svg4"
     fit-margin-top="0"
     fit-margin-left="0"
     fit-margin-right="0"
     fit-margin-bottom="0"
     inkscape:document-rotation="0"
     units="in" />
  <path
     fill="currentColor"
     d="M 4,0 C 1.7908544,0 0,1.7908544 0,4 0,6.2091456 1.7908544,8 4,8 6.2091456,8 8,6.2091456 8,4 8,1.7908544 6.2091456,0 4,0 Z M 4,7.225804 C 2.2172264,7.225804 0.77419378,5.7830488 0.77419378,4 0.77419378,2.2172424 2.2169512,0.77419378 4,0.77419378 5.7827736,0.77419378 7.225804,2.2169512 7.225804,4 7.225804,5.7827736 5.7830488,7.225804 4,7.225804 Z M 5.731468,5.5957416 C 5.576404,5.752388 4.9971128,6.26342 4.053,6.26342 c -1.329516,0 -2.2658704,-0.9907272 -2.2658704,-2.2833392 0,-1.2766448 0.9721776,-2.248404 2.2542256,-2.248404 0.8956608,0 1.4312568,0.4293552 1.5740808,0.560952 a 0.19298385,0.19298385 0 0 1 0.031226,0.2471288 l -0.2928226,0.453436 c -0.061954,0.095968 -0.193,0.1174512 -0.2822424,0.047114 C 4.9329688,2.931016 4.558468,2.6767896 4.076308,2.6767896 c -0.7790808,0 -1.2567112,0.5698392 -1.2567112,1.2916464 0,0.6707904 0.4336784,1.3498712 1.2625336,1.3498712 0.5267248,0 0.9168216,-0.3070808 1.0600968,-0.4391136 0.085,-0.07834 0.2192888,-0.065152 0.2874184,0.028036 l 0.320404,0.4382247 a 0.19269354,0.19269354 0 0 1 -0.018583,0.2502905 z"
     id="path2"
     style="stroke-width:0.0161292;fill:#101e2c;fill-opacity:1" />
</svg>
