<svg width="425" height="145" xmlns="http://www.w3.org/2000/svg" xmlns:xlink="http://www.w3.org/1999/xlink" xml:space="preserve" overflow="hidden"><g transform="matrix(1 0 0 1 0 -207)"><path d="M45.931 47.1042C47.2148 47.3698 47.8346 47.9896 47.8346 49.4062L47.8346 57.4414C47.8346 58.7253 47.1927 59.3451 45.7982 59.3451L37.3867 59.3451C31.1445 59.3451 28.3333 59.8542 28.3333 65.3438L28.3333 72.9141C28.3333 73.3789 28.7096 73.7552 29.1745 73.7552L44.2708 73.7552C45.6654 73.7552 46.1745 74.3971 45.931 75.7917L44.4036 84.0703C44.138 85.3542 43.5182 85.8633 42.2344 85.8633L29.1745 85.8633C28.7096 85.8633 28.3333 86.2396 28.3333 86.7044L28.3333 142.242C28.3333 143.283 27.4922 144.124 26.4518 144.124L14.8086 144.124C13.7682 144.124 12.9271 143.283 12.9271 142.242L12.9271 86.7044C12.9271 86.2396 12.5508 85.8633 12.0859 85.8633L4.25 85.8633C2.85547 85.8633 2.21354 85.2214 2.21354 83.9596L2.21354 75.681C2.21354 74.3971 2.85547 73.7773 4.25 73.7773L12.0859 73.7773C12.5508 73.7773 12.9271 73.401 12.9271 72.9362L12.9271 62.3112C12.9271 47.1484 24.1497 45.9974 33.4466 45.9974 37.276 45.9531 42.1237 46.4622 45.931 47.1042Z" fill="#00A1DE" transform="matrix(1 0 0 1.00154 0 162.332)"/><path d="M72.1836 46.5951C73.224 46.5951 74.0651 47.4362 74.0651 48.4766L74.0651 142.242C74.0651 143.283 73.224 144.124 72.1836 144.124L60.5182 144.124C59.4779 144.124 58.6367 143.283 58.6367 142.242L58.6367 48.4766C58.6367 47.4362 59.4779 46.5951 60.5182 46.5951L72.1836 46.5951Z" fill="#00A1DE" transform="matrix(1 0 0 1.00154 0 162.332)"/><path d="M145.762 107.534 145.762 111.363C145.762 113.776 144.987 114.816 141.423 114.816L102.974 114.816C101.889 114.816 101.026 115.724 101.092 116.809 101.734 128.629 105.099 131.396 116.831 131.396L138.656 131.396C139.697 131.396 140.538 132.237 140.538 133.277L140.538 141.202C140.538 142.596 139.896 143.105 138.745 143.371 131.993 144.389 124.091 144.766 115.923 144.766 91.0651 144.766 85.4648 137.616 85.4648 108.951 85.4648 80.1302 91.0651 73.0026 115.923 73.0026 139.896 72.9805 145.518 79.8646 145.762 107.534ZM102.93 103.704 128.275 103.704C129.337 103.704 130.201 102.819 130.156 101.757 129.78 89.6042 126.703 86.3724 115.923 86.3724 104.656 86.3724 101.447 89.6042 101.048 101.757 101.026 102.819 101.867 103.704 102.93 103.704Z" fill="#00A1DE" transform="matrix(1 0 0 1.00154 0 162.332)"/><path d="M288.115 107.534 288.115 111.363C288.115 113.776 287.34 114.816 283.776 114.816L245.327 114.816C244.242 114.816 243.379 115.724 243.445 116.809 244.087 128.629 247.452 131.396 259.184 131.396L281.009 131.396C282.049 131.396 282.891 132.237 282.891 133.277L282.891 141.202C282.891 142.596 282.249 143.105 281.098 143.371 274.346 144.389 266.444 144.766 258.276 144.766 233.418 144.766 227.818 137.616 227.818 108.951 227.818 80.1302 233.418 73.0026 258.276 73.0026 282.249 72.9805 287.871 79.8646 288.115 107.534ZM245.283 103.704 270.628 103.704C271.69 103.704 272.553 102.819 272.509 101.757 272.133 89.6042 269.056 86.3724 258.276 86.3724 247.009 86.3724 243.799 89.6042 243.401 101.757 243.379 102.819 244.22 103.704 245.283 103.704Z" fill="#333333" transform="matrix(1 0 0 1.00154 0 162.332)"/><path d="M336.79 74.375C338.074 74.7513 338.827 75.2604 338.827 76.6771L338.827 84.4466C338.827 85.8411 338.052 86.4831 336.658 86.3503L325.059 86.3503C317.4 86.3503 315.12 87.6341 315.12 93.2344L315.12 142.22C315.12 143.26 314.279 144.102 313.238 144.102L301.573 144.102C300.533 144.102 299.691 143.26 299.691 142.22L299.691 89.2943C299.691 74.1315 311.799 72.9805 321.229 72.9805 324.549 72.9805 333.337 73.3568 336.79 74.375Z" fill="#333333" transform="matrix(1 0 0 1.00154 0 162.332)"/><path d="M401.559 93.8984 401.559 138.258C401.559 139.918 401.293 141.18 399.013 141.954 392.395 143.858 381.172 144.766 370.326 144.766 352.484 144.766 343.431 141.954 343.431 123.471 343.431 107.29 351.975 103.195 367.647 103.195L384.249 103.195C385.289 103.195 386.13 102.354 386.13 101.314L386.13 96.5768C386.13 89.4271 381.924 86.3724 371.72 86.3724L350.78 86.3724C349.74 86.3724 348.898 85.5312 348.898 84.4909L348.898 76.6771C348.898 75.1497 349.408 74.8841 350.691 74.6406 358.35 73.2461 365.234 72.9805 371.72 72.9805 394.165 72.9805 401.559 80.1302 401.559 93.8984ZM368.533 114.285C361.781 114.285 358.727 116.454 358.727 122.829 358.727 130.09 362.158 131.883 371.609 131.883 374.443 131.883 380.331 131.684 384.625 130.82 385.51 130.643 386.13 129.868 386.13 128.961L386.13 116.167C386.13 115.126 385.289 114.285 384.249 114.285L368.533 114.285Z" fill="#333333" transform="matrix(1 0 0 1.00154 0 162.332)"/><path d="M193.641 104.214 188.195 96.931 172.147 74.8177C171.616 74.043 170.974 73.6667 170.066 73.6667L155.479 73.6667C153.908 73.6667 153.509 74.6849 154.572 75.9909L176.862 106.693C176.862 106.693 176.862 106.693 176.862 106.693L176.862 106.693C185.783 118.092 182.728 123.892 182.241 124.667L193.618 109.194C194.747 107.711 194.747 105.697 193.641 104.214Z" fill="#00A1DE" transform="matrix(1 0 0 1.00154 0 162.332)"/><path d="M176.862 106.715 176.862 106.715 151.539 141.667C150.764 142.951 151.141 143.991 152.712 143.991L167.167 143.991C168.074 143.991 168.738 143.371 169.115 142.84L182.174 124.777C182.174 124.777 182.197 124.755 182.241 124.689 182.728 123.914 185.783 118.092 176.862 106.715Z" fill="#00549F" transform="matrix(1 0 0 1.00154 0 162.332)"/><path d="M199.529 99.0781C200.148 99.9193 201.432 99.9193 202.052 99.0781L218.831 75.9688C219.871 74.6849 219.473 73.6445 217.923 73.6445L203.336 73.6445C202.428 73.6445 201.764 74.0208 201.255 74.7956L191.914 87.5899C191.671 87.9219 191.671 88.3646 191.914 88.6966L199.529 99.0781Z" fill="#333333" transform="matrix(1 0 0 1.00154 0 162.332)"/><path d="M221.841 141.667 202.052 114.352C201.432 113.488 200.148 113.488 199.529 114.352L191.914 124.799C191.671 125.132 191.671 125.574 191.914 125.906L204.243 142.84C204.753 143.504 205.284 143.991 206.191 143.991L220.646 143.991C222.24 143.991 222.616 142.951 221.841 141.667Z" fill="#333333" transform="matrix(1 0 0 1.00154 0 162.332)"/><path d="M414.331 135.336 412.206 135.336 412.206 141.667 411.254 141.667 411.254 135.358 409.129 135.358 409.129 134.473 414.331 134.473 414.331 135.336Z" fill="#333333" transform="matrix(1 0 0 1.00154 0 162.332)"/><path d="M422.786 141.667 421.835 141.667 421.835 135.69 419.533 141.667 418.846 141.667 416.522 135.69 416.522 141.667 415.592 141.667 415.592 134.473 417.031 134.473 419.201 140.117 421.37 134.473 422.786 134.473 422.786 141.667Z" fill="#333333" transform="matrix(1 0 0 1.00154 0 162.332)"/></g></svg>
