<?xml version="1.0" encoding="UTF-8" standalone="no"?>
<!-- Generator: Adobe Illustrator 23.0.1, SVG Export Plug-In . SVG Version: 6.00 Build 0)  -->

<svg
   xmlns:dc="http://purl.org/dc/elements/1.1/"
   xmlns:cc="http://creativecommons.org/ns#"
   xmlns:rdf="http://www.w3.org/1999/02/22-rdf-syntax-ns#"
   xmlns:svg="http://www.w3.org/2000/svg"
   xmlns="http://www.w3.org/2000/svg"
   xmlns:sodipodi="http://sodipodi.sourceforge.net/DTD/sodipodi-0.dtd"
   xmlns:inkscape="http://www.inkscape.org/namespaces/inkscape"
   version="1.1"
   id="Layer_1"
   x="0px"
   y="0px"
   viewBox="0 0 836.4 259.9"
   style="enable-background:new 0 0 836.4 259.9;"
   xml:space="preserve"
   sodipodi:docname="snow-commander-docs.svg"
   inkscape:version="0.92.4 (5da689c313, 2019-01-14)"><metadata
   id="metadata5270"><rdf:RDF><cc:Work
       rdf:about=""><dc:format>image/svg+xml</dc:format><dc:type
         rdf:resource="http://purl.org/dc/dcmitype/StillImage" /><dc:title></dc:title></cc:Work></rdf:RDF></metadata><defs
   id="defs5268" /><sodipodi:namedview
   pagecolor="#ffffff"
   bordercolor="#666666"
   borderopacity="1"
   objecttolerance="10"
   gridtolerance="10"
   guidetolerance="10"
   inkscape:pageopacity="0"
   inkscape:pageshadow="2"
   inkscape:window-width="1877"
   inkscape:window-height="887"
   id="namedview5266"
   showgrid="false"
   inkscape:pagecheckerboard="true"
   inkscape:zoom="0.33835484"
   inkscape:cx="418.20001"
   inkscape:cy="129.95"
   inkscape:window-x="0"
   inkscape:window-y="1"
   inkscape:window-maximized="0"
   inkscape:current-layer="Layer_1" />
<style
   type="text/css"
   id="style5221">
	.st0{fill-rule:evenodd;clip-rule:evenodd;fill:#FFFFFF;}
	.st1{fill:#FFFFFF;}
</style>
<g
   id="g5235">
	<g
   id="Layer_2-2">
		<path
   id="Fill-1"
   class="st0"
   d="M307.4,143.7c-19.9,0-34.9-2.9-51.4-9.2c-9.8-4.2-11-14.3-5.5-18.9c4.9-4.3,16.8-6.9,26-3.4    c13,5,18.2,10.8,28,10.8c9,0,14.6-1.7,14.6-5.8c0-5.6-4.5-8.6-25.8-12.5c-24.4-4.2-41.7-16.3-41.7-32.1    c0-18.5,28.6-28.6,55.6-28.6c8.9,0.1,17.9,1.1,26.6,2.9c5.5,1.1,9.2,4.9,9.2,9.2V65c0,4.9-9.4,10.8-17.6,5.5    c-3.9-2.6-11.9-5.2-16.3-5.2c-10.4,0-17.3,2.1-17.3,7.6c0,6.1,8.2,8.8,29.3,13c25,6.1,39.8,13.4,39.8,30.7    C360.8,135.1,330.1,143.7,307.4,143.7" />
		<path
   id="Fill-2"
   class="st0"
   d="M480.3,141.5h-23.9c-9.6,0-14.2-1.2-14.2-10.5c0-6.5,1.2-6.3,5.1-8.4c3.3-1.8,5.1-3.7,5.1-6.7    V74.3c0-5.6-8-9.9-18-9.9c-9.8,0-17.6,4.4-17.6,9.9v58.9c0,5.3-4.9,8.3-13.7,8.3h-14.1c-7.8,0-13.5-3-13.5-8.4V64.9    c0-8.9,11.8-11.3,21.7-9.6l4.8,1.1c4.4,0.8,6.5,0.2,7.7-1.2c7.1-7.5,21.1-11.1,37.4-11.1c30.4,0,46.1,17.7,46.1,34.8v54.3    C493.4,138.5,489.1,141.5,480.3,141.5" />
		<g
   id="g5226">
			<path
   id="Fill-3"
   class="st0"
   d="M596.4,78.4c0-8.3-10.5-14.7-22.6-14.7c-12.7,0-23.2,6.4-23.2,14.7v32.7     c0,8.2,10.7,14.7,23.2,14.7c12.3,0,22.6-6.4,22.6-14.7V78.4z M573.7,144.9c-35.5,0-63.9-18.6-63.9-41.1V84.6     c0-23.4,28.3-41,63.9-41c34.1,0,63.5,17.6,63.5,41v19.2C637.2,126.4,608.6,144.9,573.7,144.9L573.7,144.9z" />
		</g>
		<g
   id="g5229">
			<path
   id="Fill-5"
   class="st0"
   d="M787.8,136.4c-1.6,4.2-5.5,5.3-11.4,5.3h-10.8c-4.4,0-9.7-1.9-11.5-5.3l-21.8-42.2     c-1.7-2.9-2.8-2.8-4.3,0l-23.6,42.4c-2.3,4.2-5.4,5-11.3,5h-10.9c-4,0-10.5-1.9-11.6-5.6l-29.1-80.4c-2.3-6.6,5-8.8,14.1-8.8h12     c8.2,0,14.1,1,15.8,7.7l9.8,36.7c0.6,2.4,3.3,2.8,4.6,0.3l13.1-30.4c2-3.9,4.9-5.9,10-6.4l12-1.2c9.2-1.5,13.2,2.3,15.1,6.8     l16,32.2c0.8,2,2.9,1.8,3.8-0.1l7.4-21.1c1.2-2.6,0.6-3.7-2.8-5.6c-3.9-2.1-5-2-5-8.5c0-9.2,4.8-10.4,14.2-10.4h25.3     c6.7,0,15.6,2.3,12.3,10.4L787.8,136.4" />
		</g>
		<g
   id="g5232">
			<path
   id="Fill-6"
   class="st0"
   d="M195.7,94.3l-12.6-21.7L212,56l-10.3-17.8l-29,16.6l-12.6-21.7h-25.2V0h-20.5v33.1H89.1     L76.5,54.8L47.5,38.2L37.3,56l28.8,16.6L53.6,94.3l12.5,21.7l-28.8,16.6l10.3,17.8l28.9-16.6l12.6,21.7h25.3v33.1h20.5v-33.1     h25.2l12.6-21.7l29,16.6l10.3-17.8L183.1,116L195.7,94.3L195.7,94.3z M167.6,94.3L144,130.8h-38.8L81.6,94.3l23.7-36.5h38.8     L167.6,94.3L167.6,94.3z" />
		</g>
	</g>
</g>
<g
   id="g5263">
	<path
   class="st1"
   d="M283.6,210c0,5.8-3.5,10.9-15.7,10.9c-12.2,0-15.7-5.1-15.7-10.9v-27.5c0-5.8,3.5-10.9,15.7-10.9   c12.2,0,15.7,5.1,15.7,10.9v3.5c0,1-0.4,1.4-1.3,1.4h-4.1c-1,0-1.3-0.4-1.3-1.4v-2.3c0-3.8-2.5-6.2-8.9-6.2s-8.8,2.3-8.8,6.2v25.3   c0,3.8,2.4,6.2,8.8,6.2s8.9-2.3,8.9-6.2v-3.3c0-0.9,0.4-1.3,1.3-1.3h4.1c0.9,0,1.3,0.4,1.3,1.3V210z"
   id="path5237" />
	<path
   class="st1"
   d="M291.9,182.4c0-5.8,4-10.9,16.1-10.9c12.2,0,16.2,5.1,16.2,10.9V210c0,5.8-4,10.9-16.2,10.9   c-12.1,0-16.1-5.1-16.1-10.9V182.4z M317.2,183.6c0-3.8-2.8-6.2-9.2-6.2c-6.3,0-9.2,2.3-9.2,6.2v25.3c0,3.8,2.8,6.2,9.2,6.2   c6.4,0,9.2-2.3,9.2-6.2V183.6z"
   id="path5239" />
	<path
   class="st1"
   d="M375.6,219c0,0.9-0.4,1.3-1.3,1.3h-4.2c-0.9,0-1.3-0.4-1.3-1.3v-32.6c-0.1,0.4-1.1,3.6-1.7,5.3l-8.2,20   c-0.4,0.9-0.9,1.4-1.8,1.4h-3.7c-0.9,0-1.3-0.6-1.7-1.4l-8.8-20.8c-0.7-1.6-1.3-4-1.3-4.3V219c0,0.9-0.4,1.3-1.3,1.3h-4   c-0.9,0-1.3-0.4-1.3-1.3v-45.6c0-0.9,0.4-1.3,1.3-1.3h4c0.6,0,1,0.3,1.2,0.8l12.3,28.5c0.5,1.2,1.4,4,1.5,4.3   c0.1-0.3,1.1-3,1.6-4.2l12.1-28.8c0.2-0.5,0.6-0.6,1.2-0.6h4.2c0.9,0,1.3,0.4,1.3,1.3V219z"
   id="path5241" />
	<path
   class="st1"
   d="M427.7,219c0,0.9-0.4,1.3-1.3,1.3h-4.2c-0.9,0-1.3-0.4-1.3-1.3v-32.6c-0.1,0.4-1.1,3.6-1.7,5.3l-8.2,20   c-0.4,0.9-0.9,1.4-1.8,1.4h-3.7c-0.9,0-1.3-0.6-1.7-1.4l-8.8-20.8c-0.7-1.6-1.3-4-1.3-4.3V219c0,0.9-0.4,1.3-1.3,1.3h-4   c-0.9,0-1.3-0.4-1.3-1.3v-45.6c0-0.9,0.4-1.3,1.3-1.3h4c0.6,0,1,0.3,1.2,0.8l12.3,28.5c0.5,1.2,1.4,4,1.5,4.3   c0.1-0.3,1.1-3,1.6-4.2l12.1-28.8c0.2-0.5,0.6-0.6,1.2-0.6h4.2c0.9,0,1.3,0.4,1.3,1.3V219z"
   id="path5243" />
	<path
   class="st1"
   d="M454.8,172.1c0.9,0,1.4,0.4,1.7,1.3l13.8,45.6c0.3,0.9-0.1,1.3-1.1,1.3h-4.5c-0.9,0-1.3-0.5-1.6-1.3l-3.3-11   h-15l-3.3,11c-0.2,0.9-0.6,1.3-1.6,1.3h-4.1c-0.9,0-1.3-0.5-1-1.3l13.8-45.6c0.3-0.9,0.8-1.3,1.7-1.3H454.8z M454.3,189.5   c-0.9-2.6-1.8-9.6-1.9-10.4c-0.1,0.6-1.1,7.2-2,10.2l-4,13.1h11.9L454.3,189.5z"
   id="path5245" />
	<path
   class="st1"
   d="M509.7,219c0,0.9-0.3,1.3-1.3,1.3h-3.9c-0.7,0-1-0.2-1.3-0.6l-16.7-29.3c-1.6-2.6-2.4-4.8-2.6-5.1V219   c0,0.9-0.4,1.3-1.3,1.3h-4c-0.9,0-1.3-0.4-1.3-1.3v-45.6c0-0.9,0.4-1.3,1.3-1.3h4c0.6,0,0.9,0.2,1.1,0.6l17.1,29.9   c1,1.7,2.2,4.5,2.2,4.5v-33.7c0-0.9,0.4-1.3,1.3-1.3h3.9c1,0,1.3,0.4,1.3,1.3V219z"
   id="path5247" />
	<path
   class="st1"
   d="M522.5,220.3c-0.9,0-1.1-0.5-1.1-1.4v-45.4c0-1,0.4-1.4,1.3-1.4h14.8c12.1,0,16.2,5.1,16.2,10.9v26.4   c0,5.8-4,10.9-16.2,10.9H522.5z M528.3,178v36.5h9.2c6.4,0,9.2-2.3,9.2-6.2v-24.1c0-3.8-2.8-6.2-9.2-6.2H528.3z"
   id="path5249" />
	<path
   class="st1"
   d="M565.8,220.3c-0.9,0-1.3-0.4-1.3-1.4v-45.4c0-1,0.4-1.4,1.3-1.4h24.3c0.9,0,1.3,0.4,1.3,1.3v3.2   c0,1-0.4,1.3-1.3,1.3h-18.7v14.3h17.4c1,0,1.4,0.4,1.4,1.3v3.1c0,0.9-0.4,1.3-1.4,1.3h-17.4v16.4h19.5c0.9,0,1.3,0.3,1.3,1.3v3.3   c0,1-0.4,1.3-1.3,1.3H565.8z"
   id="path5251" />
	<path
   class="st1"
   d="M608.3,201.2v17.7c0,1-0.3,1.4-1.3,1.4h-4.3c-0.9,0-1.3-0.4-1.3-1.4v-45.4c0-1,0.4-1.4,1.3-1.4h14.4   c12.2,0,16.1,5.1,16.1,10.9v7.4c0,4.3-2.2,8.2-8.3,9.9l8.5,18.6c0.4,0.9-0.3,1.4-1.3,1.4h-4.3c-1,0-1.1-0.6-1.6-1.4l-8-17.7h-1.2   H608.3z M608.3,178v17.4h8.8c6.4,0,9.2-2.3,9.2-6.2v-5c0-3.8-2.8-6.2-9.2-6.2H608.3z"
   id="path5253" />
	<path
   class="st1"
   d="M659.7,220.3c-0.9,0-1.1-0.5-1.1-1.4v-45.4c0-1,0.4-1.4,1.3-1.4h14.8c12.1,0,16.2,5.1,16.2,10.9v26.4   c0,5.8-4,10.9-16.2,10.9H659.7z M665.4,178v36.5h9.2c6.4,0,9.2-2.3,9.2-6.2v-24.1c0-3.8-2.8-6.2-9.2-6.2H665.4z"
   id="path5255" />
	<path
   class="st1"
   d="M700.9,182.4c0-5.8,4-10.9,16.1-10.9c12.2,0,16.2,5.1,16.2,10.9V210c0,5.8-4,10.9-16.2,10.9   c-12.1,0-16.1-5.1-16.1-10.9V182.4z M726.3,183.6c0-3.8-2.8-6.2-9.2-6.2c-6.3,0-9.2,2.3-9.2,6.2v25.3c0,3.8,2.8,6.2,9.2,6.2   c6.4,0,9.2-2.3,9.2-6.2V183.6z"
   id="path5257" />
	<path
   class="st1"
   d="M774.7,210c0,5.8-3.5,10.9-15.7,10.9s-15.7-5.1-15.7-10.9v-27.5c0-5.8,3.5-10.9,15.7-10.9s15.7,5.1,15.7,10.9   v3.5c0,1-0.4,1.4-1.3,1.4h-4.1c-1,0-1.3-0.4-1.3-1.4v-2.3c0-3.8-2.5-6.2-8.9-6.2s-8.8,2.3-8.8,6.2v25.3c0,3.8,2.4,6.2,8.8,6.2   s8.9-2.3,8.9-6.2v-3.3c0-0.9,0.4-1.3,1.3-1.3h4.1c0.9,0,1.3,0.4,1.3,1.3V210z"
   id="path5259" />
	<path
   class="st1"
   d="M807.1,183.3c0-3.8-2.3-6-8.6-6s-8.6,2.2-8.6,6v1.4c0,3.3,2.1,4.2,3.6,4.8l12.9,4.9c4.3,1.6,7.8,4.4,7.8,9.7   v5.9c0,5.8-4,10.9-15.9,10.9c-11.9,0-16-5.1-16-10.9v-4.1c0-1,0.4-1.4,1.3-1.4h4.2c0.9,0,1.3,0.4,1.3,1.4v3.2c0,3.8,2.7,6,9.1,6   s9.2-2.2,9.2-6v-3.3c0-3.5-3.2-4.8-6-5.8l-12-4.6c-3.1-1.2-6.3-4.4-6.3-8.8v-4c0-5.8,3.7-10.9,15.3-10.9c11.6,0,15.4,5.1,15.4,10.9   v3.1c0,0.9-0.4,1.3-1.3,1.3h-4.2c-1,0-1.3-0.4-1.3-1.3V183.3z"
   id="path5261" />
</g>
</svg>