<?xml version="1.0" encoding="UTF-8" standalone="no"?>
<!-- Created with Inkscape (http://www.inkscape.org/) -->

<svg
   xmlns:dc="http://purl.org/dc/elements/1.1/"
   xmlns:cc="http://creativecommons.org/ns#"
   xmlns:rdf="http://www.w3.org/1999/02/22-rdf-syntax-ns#"
   xmlns:svg="http://www.w3.org/2000/svg"
   xmlns="http://www.w3.org/2000/svg"
   xmlns:sodipodi="http://sodipodi.sourceforge.net/DTD/sodipodi-0.dtd"
   xmlns:inkscape="http://www.inkscape.org/namespaces/inkscape"
   version="1.1"
   id="svg815"
   xml:space="preserve"
   width="179.65569"
   height="80"
   viewBox="0 0 179.65568 80"
   sodipodi:docname="snow-cmdr-docs-home-all-white-q-sans.svg"
   inkscape:version="0.92.4 (5da689c313, 2019-01-14)"
   inkscape:export-filename="D:\embotics-custdocs-march-2020\embotics-custdocs\Content\Resources\Images\snow-docs-home-white-bld-40h.png"
   inkscape:export-xdpi="96"
   inkscape:export-ydpi="96"
   shape-rendering="crispEdges"><metadata
     id="metadata821"><rdf:RDF><cc:Work
         rdf:about=""><dc:format>image/svg+xml</dc:format><dc:type
           rdf:resource="http://purl.org/dc/dcmitype/StillImage" /><dc:title></dc:title></cc:Work></rdf:RDF></metadata><defs
     id="defs819">
<clipPath
   clipPathUnits="userSpaceOnUse"
   id="clipPath22"><path
     d="M 0,273.462 H 557.77 V 0 H 0 Z"
     id="path20"
     inkscape:connector-curvature="0" /></clipPath>

</defs><sodipodi:namedview
     pagecolor="#ffffff"
     bordercolor="#666666"
     borderopacity="1"
     objecttolerance="10"
     gridtolerance="10"
     guidetolerance="10"
     inkscape:pageopacity="0"
     inkscape:pageshadow="2"
     inkscape:window-width="1693"
     inkscape:window-height="799"
     id="namedview817"
     showgrid="false"
     fit-margin-top="0"
     fit-margin-left="10"
     fit-margin-right="0"
     fit-margin-bottom="0"
     inkscape:zoom="3.9773145"
     inkscape:cx="30.131584"
     inkscape:cy="36.523573"
     inkscape:window-x="691"
     inkscape:window-y="120"
     inkscape:window-maximized="0"
     inkscape:current-layer="g823"
     inkscape:pagecheckerboard="true" /><g
     id="g823"
     inkscape:groupmode="layer"
     inkscape:label="ink_ext_XXXXXX"
     transform="matrix(1.3333333,0,0,-1.3333333,10,80.000001)"><text
       xml:space="preserve"
       style="font-style:normal;font-variant:normal;font-weight:600;font-stretch:normal;font-size:11.91745186px;line-height:1.25;font-family:Raleway;-inkscape-font-specification:'Raleway Semi-Bold';letter-spacing:0px;word-spacing:0px;opacity:1;fill:#ffffff;fill-opacity:1;stroke:none;stroke-width:0.29793629"
       x="-0.38589782"
       y="-4.0851274"
       id="text1989"
       transform="scale(1.0066406,-0.99340321)"
       inkscape:export-xdpi="96"
       inkscape:export-ydpi="96"><tspan
         sodipodi:role="line"
         id="tspan1987"
         x="-0.38589782"
         y="-4.0851274"
         style="font-style:normal;font-variant:normal;font-weight:bold;font-stretch:normal;font-family:'Quiet Sans';-inkscape-font-specification:'Quiet Sans';fill:#ffffff;fill-opacity:1;stroke-width:0.29793629">Commander Docs</tspan></text>
<g
       transform="matrix(0.27777778,0,0,0.27777778,-17.518013,1.3261436)"
       id="g4561"
       inkscape:export-xdpi="96"
       inkscape:export-ydpi="96"><g
         transform="translate(494.8849,173.8141)"
         id="g12"><path
           inkscape:connector-curvature="0"
           id="path14"
           style="fill:#00b2d5;fill-opacity:1;fill-rule:nonzero;stroke:none"
           d="m 0,0 -0.003,11.617 -10.06,5.811 -23.432,-13.529 v 27.058 l -10.063,5.806 -10.061,-5.806 V 3.899 L -77.052,17.428 -87.111,11.617 -87.114,0 l 23.432,-13.529 -23.432,-13.529 0.003,-11.617 10.059,-5.811 23.433,13.528 v -27.057 l 10.061,-5.806 10.063,5.806 v 27.057 l 23.432,-13.528 10.06,5.811 0.003,11.617 -23.433,13.529 z" /></g><g
         style="fill:#ffffff"
         id="g16"><g
           style="fill:#ffffff"
           clip-path="url(#clipPath22)"
           id="g18"><g
             style="fill:#ffffff"
             transform="translate(62.8849,70.4484)"
             id="g24"><path
               inkscape:connector-curvature="0"
               id="path26"
               style="fill:#ffffff;fill-opacity:1;fill-rule:nonzero;stroke:none"
               d="m 0,0 v 5.34 c 4.746,-5.488 14.089,-8.9 24.768,-8.9 13.051,0 20.912,5.043 20.912,14.387 0,7.119 -4.598,10.382 -17.056,12.903 l -8.75,1.78 C 7.563,28.031 1.631,32.184 1.631,41.379 c 0,11.271 8.899,17.501 23.73,17.501 8.899,0 16.611,-2.225 21.357,-6.081 v -5.191 c -4.598,4.598 -12.458,7.267 -21.357,7.267 -11.865,0 -19.28,-4.598 -19.28,-13.199 0,-6.674 4.449,-9.789 15.424,-12.014 l 8.75,-1.779 C 45.68,24.769 50.129,19.429 50.129,10.976 50.129,-1.187 40.934,-7.563 24.916,-7.563 14.386,-7.563 5.042,-4.746 0,0" /></g><g
             style="fill:#ffffff"
             transform="translate(134.4576,127.547)"
             id="g28"><path
               inkscape:connector-curvature="0"
               id="path30"
               style="fill:#ffffff;fill-opacity:1;fill-rule:nonzero;stroke:none"
               d="m 0,0 h 3.856 l 0.445,-11.568 c 6.229,8.75 14.682,13.347 25.212,13.347 14.682,0 22.691,-8.898 22.691,-25.804 v -38.856 h -4.45 v 38.41 c 0,14.831 -6.229,22.246 -18.389,22.246 -11.123,0 -19.725,-6.228 -24.916,-16.016 v -44.64 H 0 Z" /></g><g
             style="fill:#ffffff"
             transform="translate(270.797,96.1066)"
             id="g32"><path
               inkscape:connector-curvature="0"
               id="path34"
               style="fill:#ffffff;fill-opacity:1;fill-rule:nonzero;stroke:none"
               d="M 0,0 C 0,17.204 -11.865,29.217 -28.772,29.217 -45.68,29.217 -57.545,17.204 -57.545,0 c 0,-17.204 11.865,-29.218 28.773,-29.218 C -11.865,-29.218 0,-17.204 0,0 m -61.994,0 c 0,19.28 13.941,33.222 33.222,33.222 19.28,0 33.221,-13.942 33.221,-33.222 0,-19.28 -13.941,-33.222 -33.221,-33.222 -19.281,0 -33.222,13.942 -33.222,33.222" /></g><g
             style="fill:#ffffff"
             transform="translate(287.7911,127.548)"
             id="g36"><path
               inkscape:connector-curvature="0"
               id="path38"
               style="fill:#ffffff;fill-opacity:1;fill-rule:nonzero;stroke:none"
               d="M 0,0 H 4.746 L 25.064,-55.32 45.384,0 h 3.262 L 68.966,-55.32 89.284,0 h 4.598 L 70.745,-62.885 H 67.334 L 46.866,-7.563 26.548,-62.885 h -3.411 z" /></g></g></g></g></g></svg>