<?xml version="1.0" encoding="UTF-8" standalone="no"?>
<!-- Created with Inkscape (http://www.inkscape.org/) -->

<svg
   xmlns:dc="http://purl.org/dc/elements/1.1/"
   xmlns:cc="http://creativecommons.org/ns#"
   xmlns:rdf="http://www.w3.org/1999/02/22-rdf-syntax-ns#"
   xmlns:svg="http://www.w3.org/2000/svg"
   xmlns="http://www.w3.org/2000/svg"
   xmlns:sodipodi="http://sodipodi.sourceforge.net/DTD/sodipodi-0.dtd"
   xmlns:inkscape="http://www.inkscape.org/namespaces/inkscape"
   version="1.1"
   id="svg815"
   xml:space="preserve"
   width="179.65569"
   height="80"
   viewBox="0 0 179.65568 80"
   sodipodi:docname="snow-cmdr-docs-home-all-white.svg"
   inkscape:version="0.92.4 (5da689c313, 2019-01-14)"
   inkscape:export-filename="D:\embotics-custdocs-march-2020\embotics-custdocs\Content\Resources\Images\snow-docs-home-white-bld-40h.png"
   inkscape:export-xdpi="96"
   inkscape:export-ydpi="96"
   shape-rendering="crispEdges"><metadata
     id="metadata821"><rdf:RDF><cc:Work
         rdf:about=""><dc:format>image/svg+xml</dc:format><dc:type
           rdf:resource="http://purl.org/dc/dcmitype/StillImage" /><dc:title></dc:title></cc:Work></rdf:RDF></metadata><defs
     id="defs819" /><sodipodi:namedview
     pagecolor="#ffffff"
     bordercolor="#666666"
     borderopacity="1"
     objecttolerance="10"
     gridtolerance="10"
     guidetolerance="10"
     inkscape:pageopacity="0"
     inkscape:pageshadow="2"
     inkscape:window-width="1920"
     inkscape:window-height="796"
     id="namedview817"
     showgrid="false"
     fit-margin-top="0"
     fit-margin-left="10"
     fit-margin-right="0"
     fit-margin-bottom="0"
     inkscape:zoom="3.9773145"
     inkscape:cx="167.4536"
     inkscape:cy="36.39786"
     inkscape:window-x="2085"
     inkscape:window-y="191"
     inkscape:window-maximized="0"
     inkscape:current-layer="g823"
     inkscape:pagecheckerboard="true" /><g
     id="g823"
     inkscape:groupmode="layer"
     inkscape:label="ink_ext_XXXXXX"
     transform="matrix(1.3333333,0,0,-1.3333333,10,80.000001)"><g
       id="g834"
       inkscape:export-filename="D:\embotics-custdocs-march-2020\embotics-custdocs\Content\Resources\snow-docs-home-wh-stacked-40h.png"
       inkscape:export-xdpi="96"
       inkscape:export-ydpi="96"><g
         style="fill:#000000"
         transform="matrix(0.04685867,0,0,0.04685867,0,29.819983)"
         id="g825"><path
           inkscape:connector-curvature="0"
           id="path827"
           style="fill:#ffffff;fill-opacity:1;fill-rule:nonzero;stroke:none"
           d="m 937.285,152.281 c -69.113,0 -121.16,9.778 -178.496,31.172 -34.012,14.391 -38.234,48.399 -19.199,64.047 17.101,14.715 58.371,23.488 90.25,11.551 45.137,-16.844 63.078,-36.719 97.281,-36.719 31.137,0 50.883,5.613 50.883,19.586 0,18.973 -15.617,29.07 -89.508,42.301 -84.633,14.457 -144.84,55.367 -144.84,109.187 0,62.696 99.379,97.09 192.789,97.09 31.977,0 66.695,-4.582 92.115,-9.875 18.94,-3.742 31.98,-16.746 31.98,-31.137 v -30.101 c 0,-16.426 -32.69,-36.723 -61.017,-18.524 -13.519,8.711 -41.265,17.524 -56.593,17.524 -36.008,0 -59.918,-7.004 -59.918,-25.945 0,-20.618 28.554,-29.715 101.734,-44.137 86.634,-20.586 138.034,-45.496 138.034,-104.285 0,-62.661 -106.7,-91.735 -185.495,-91.735" /><path
           inkscape:connector-curvature="0"
           id="path829"
           style="fill:#ffffff;fill-opacity:1;fill-rule:nonzero;stroke:none"
           d="m 1537.41,159.703 h -82.83 c -33.17,0 -49.27,4.133 -49.27,35.656 0,22.036 4.19,21.391 17.62,28.684 11.42,6.324 17.74,12.617 17.74,22.812 v 141 c 0,18.973 -27.81,33.657 -62.3,33.657 -34.01,0 -61.05,-15.133 -61.05,-33.657 V 187.969 c 0,-18.102 -17.1,-28.266 -47.4,-28.266 h -48.79 c -27,0 -46.75,10.164 -46.75,28.652 v 231.446 c 0,30.07 40.75,38.523 75.25,32.554 l 16.64,-3.902 c 15.01,-2.711 22.43,-0.68 26.75,4.195 24.78,25.618 73.09,37.817 129.91,37.817 105.64,0 159.91,-59.918 159.91,-118.031 V 187.969 c 0,-18.102 -15.07,-28.266 -45.43,-28.266" /><path
           inkscape:connector-curvature="0"
           id="path831"
           style="fill:#ffffff;fill-opacity:1;fill-rule:nonzero;stroke:none"
           d="m 1861.45,148.023 c -123.26,0 -221.57,63.016 -221.57,139.747 v 65.113 c 0,79.469 98.31,139.289 221.57,139.289 118.48,0 220.22,-59.82 220.22,-139.289 V 287.77 c 0,-76.731 -99.06,-139.747 -220.22,-139.747 m 78.6,225.864 c 0,28.359 -36.62,50.043 -78.6,50.043 -44.11,0 -80.44,-21.684 -80.44,-50.043 V 262.953 c 0,-28.004 37.04,-49.816 80.44,-49.816 42.79,0 78.6,21.812 78.6,49.816 v 110.934" /><path
           inkscape:connector-curvature="0"
           id="path833"
           style="fill:#ffffff;fill-opacity:1;fill-rule:nonzero;stroke:none"
           d="m 2604.19,177.105 c -5.65,-14.261 -18.91,-17.812 -39.4,-17.812 h -37.4 c -15.23,0 -33.46,6.23 -39.94,17.812 l -75.47,143.196 c -5.75,9.875 -9.62,9.488 -15.04,0 L 2314.95,176.43 c -8.06,-14.36 -18.94,-17.137 -39.2,-17.137 h -37.59 c -14.07,0 -36.33,6.23 -40.27,18.941 l -101.18,273.133 c -7.97,22.328 17.19,29.653 48.85,29.653 h 41.49 c 28.52,0 48.75,-3.485 54.76,-26.2 l 33.94,-124.644 c 2.03,-8.035 11.39,-9.488 16.04,-1.098 l 45.43,103.317 c 6.77,13.39 16.94,19.941 34.72,21.683 l 41.59,4.227 c 31.91,5.226 45.68,-7.778 52.4,-23.039 l 55.46,-109.286 c 2.87,-6.968 10.2,-5.968 13.04,0.356 L 2560.08,398 c 4.16,8.809 2.1,12.711 -9.58,18.938 -13.49,7.003 -17.43,6.648 -17.43,28.847 0,31.07 16.65,35.235 49.37,35.235 h 87.89 c 23.1,0 54.27,-7.68 42.56,-35.235 l -108.7,-268.68" /><path
           inkscape:connector-curvature="0"
           id="path835"
           style="fill:#ffffff;fill-opacity:1;fill-rule:nonzero;stroke:none"
           d="M 267.484,640.223 V 527.84 h -87.73 L 136.035,454.145 35.6875,510.48 0,450.078 99.9922,393.711 56.625,320.113 99.9922,246.48 0,190.176 35.6875,129.742 136.035,186.078 179.754,112.383 h 87.73 V 0 h 71.278 v 112.383 h 87.441 l 43.817,73.695 100.636,-56.336 35.59,60.434 -100.055,56.304 43.719,73.633 -43.719,73.629 100.055,56.336 -35.59,60.402 L 470.02,454.145 426.203,527.84 H 338.762 V 640.223 Z M 153.813,320.113 235.77,444.176 H 370.512 L 452.273,320.113 370.512,196.051 H 235.77 l -81.957,124.062" /></g><text
         transform="scale(1.0066406,-0.99340321)"
         id="text1989"
         y="-15.773862"
         x="-0.3167271"
         style="font-style:normal;font-variant:normal;font-weight:600;font-stretch:normal;font-size:14.94706059px;line-height:1.25;font-family:Raleway;-inkscape-font-specification:'Raleway Semi-Bold';letter-spacing:0px;word-spacing:0px;opacity:1;fill:#ffffff;fill-opacity:1;stroke:none;stroke-width:0.37367651;"
         xml:space="preserve"><tspan
           style="font-style:normal;font-variant:normal;font-weight:600;font-stretch:normal;font-family:Raleway;-inkscape-font-specification:'Raleway Semi-Bold';fill:#ffffff;fill-opacity:1;stroke-width:0.37367651;"
           y="-15.773862"
           x="-0.3167271"
           id="tspan1987"
           sodipodi:role="line">Commander Docs</tspan></text>
</g></g></svg>