<?xml version="1.0" encoding="UTF-8" standalone="no"?>
<!-- Generator: Adobe Illustrator 24.1.2, SVG Export Plug-In . SVG Version: 6.00 Build 0)  -->

<svg
   xmlns:dc="http://purl.org/dc/elements/1.1/"
   xmlns:cc="http://creativecommons.org/ns#"
   xmlns:rdf="http://www.w3.org/1999/02/22-rdf-syntax-ns#"
   xmlns:svg="http://www.w3.org/2000/svg"
   xmlns="http://www.w3.org/2000/svg"
   xmlns:sodipodi="http://sodipodi.sourceforge.net/DTD/sodipodi-0.dtd"
   xmlns:inkscape="http://www.inkscape.org/namespaces/inkscape"
   version="1.1"
   id="Logo"
   x="0px"
   y="0px"
   viewBox="0 0 148.49703 69.502016"
   xml:space="preserve"
   sodipodi:docname="snow-docs-home150-70.svg"
   width="148.49704"
   height="69.502014"
   inkscape:version="0.92.4 (5da689c313, 2019-01-14)"><metadata
   id="metadata27"><rdf:RDF><cc:Work
       rdf:about=""><dc:format>image/svg+xml</dc:format><dc:type
         rdf:resource="http://purl.org/dc/dcmitype/StillImage" /><dc:title /></cc:Work></rdf:RDF></metadata><defs
   id="defs25">
	
	
</defs><sodipodi:namedview
   pagecolor="#ffffff"
   bordercolor="#666666"
   borderopacity="1"
   objecttolerance="10"
   gridtolerance="10"
   guidetolerance="10"
   inkscape:pageopacity="0"
   inkscape:pageshadow="2"
   inkscape:window-width="1182"
   inkscape:window-height="840"
   id="namedview23"
   showgrid="false"
   fit-margin-top="0"
   fit-margin-left="0"
   fit-margin-right="0"
   fit-margin-bottom="0"
   inkscape:pagecheckerboard="true"
   inkscape:zoom="4.0733634"
   inkscape:cx="65.727718"
   inkscape:cy="21.732771"
   inkscape:window-x="169"
   inkscape:window-y="50"
   inkscape:window-maximized="0"
   inkscape:current-layer="Logo" />
<style
   type="text/css"
   id="style2">
	.st0{fill:none;}
	.st1{fill:#00B2D5;}
	.st2{fill:#101E2C;}
</style>
<rect
   style="fill:none;stroke-width:0.34374315"
   y="-21.614569"
   id="rect4"
   height="94"
   width="191.72963"
   class="st0"
   x="-21.614569" />
<g
   id="g5121"
   transform="translate(-21.614569,-21.614569)"><g
   id="g832"><g
     id="g18"
     transform="scale(0.34374315)">
		<polygon
   style="fill:#00b2d5"
   id="polygon6"
   points="441.27,95.75 417.83,82.22 407.77,88.03 407.77,99.65 431.2,113.18 407.77,126.71 407.77,138.32 417.83,144.13 441.27,130.61 441.27,157.66 451.33,163.47 461.39,157.66 461.39,130.61 484.82,144.13 494.88,138.32 494.88,126.71 471.45,113.18 494.88,99.65 494.88,88.03 484.82,82.22 461.39,95.75 461.39,68.69 451.33,62.88 441.27,68.69 "
   class="st1" />
		<g
   id="g16">
			<path
   style="fill:#ffffff"
   inkscape:connector-curvature="0"
   id="path8"
   d="m 62.88,203.01 v -5.34 c 4.75,5.49 14.09,8.9 24.77,8.9 13.05,0 20.91,-5.04 20.91,-14.39 0,-7.12 -4.6,-10.38 -17.06,-12.9 l -8.75,-1.78 c -12.31,-2.52 -18.24,-6.67 -18.24,-15.87 0,-11.27 8.9,-17.5 23.73,-17.5 8.9,0 16.61,2.22 21.36,6.08 v 5.19 c -4.6,-4.6 -12.46,-7.27 -21.36,-7.27 -11.86,0 -19.28,4.6 -19.28,13.2 0,6.67 4.45,9.79 15.42,12.01 l 8.75,1.78 c 15.42,3.11 19.87,8.45 19.87,16.91 0,12.16 -9.2,18.54 -25.21,18.54 -10.52,0.01 -19.86,-2.81 -24.91,-7.56 z"
   class="st2" />
			<path
   style="fill:#ffffff"
   inkscape:connector-curvature="0"
   id="path10"
   d="m 134.46,145.92 h 3.86 l 0.44,11.57 c 6.23,-8.75 14.68,-13.35 25.21,-13.35 14.68,0 22.69,8.9 22.69,25.81 v 38.86 h -4.45 V 170.4 c 0,-14.83 -6.23,-22.25 -18.39,-22.25 -11.12,0 -19.72,6.23 -24.92,16.02 v 44.64 h -4.45 v -62.89 z"
   class="st2" />
			<path
   style="fill:#ffffff"
   inkscape:connector-curvature="0"
   id="path12"
   d="m 208.8,177.36 c 0,-19.28 13.94,-33.22 33.22,-33.22 19.28,0 33.22,13.94 33.22,33.22 0,19.28 -13.94,33.22 -33.22,33.22 -19.28,0 -33.22,-13.94 -33.22,-33.22 z m 62,0 c 0,-17.2 -11.86,-29.22 -28.77,-29.22 -16.91,0 -28.77,12.01 -28.77,29.22 0,17.2 11.86,29.22 28.77,29.22 16.9,-0.01 28.77,-12.02 28.77,-29.22 z"
   class="st2" />
			<path
   style="fill:#ffffff"
   inkscape:connector-curvature="0"
   id="path14"
   d="m 287.79,145.91 h 4.75 l 20.32,55.32 20.32,-55.32 h 3.26 l 20.32,55.32 20.32,-55.32 h 4.6 l -23.14,62.88 h -3.41 l -20.47,-55.32 -20.32,55.32 h -3.41 z"
   class="st2" />
		</g>
	</g><text
     xml:space="preserve"
     style="font-style:normal;font-variant:normal;font-weight:600;font-stretch:normal;font-size:14.8515892px;line-height:1.25;font-family:Raleway;-inkscape-font-specification:'Raleway Semi-Bold';letter-spacing:0px;word-spacing:0px;opacity:1;fill:#ffffff;fill-opacity:1;stroke:none;stroke-width:0.37128973"
     x="21.391247"
     y="91.543434"
     id="text1989"
     transform="scale(1.0066406,0.99340321)"
     inkscape:export-xdpi="96"
     inkscape:export-ydpi="96"><tspan
       sodipodi:role="line"
       id="tspan1987"
       x="21.391247"
       y="91.543434"
       style="font-style:normal;font-variant:normal;font-weight:bold;font-stretch:normal;font-family:'Quiet Sans';-inkscape-font-specification:'Quiet Sans';fill:#ffffff;fill-opacity:1;stroke-width:0.37128973">Commander Docs</tspan></text>
</g>
</g></svg>