<?xml version="1.0" encoding="UTF-8" standalone="no"?>
<svg
   xmlns:dc="http://purl.org/dc/elements/1.1/"
   xmlns:cc="http://creativecommons.org/ns#"
   xmlns:rdf="http://www.w3.org/1999/02/22-rdf-syntax-ns#"
   xmlns:svg="http://www.w3.org/2000/svg"
   xmlns="http://www.w3.org/2000/svg"
   xmlns:sodipodi="http://sodipodi.sourceforge.net/DTD/sodipodi-0.dtd"
   xmlns:inkscape="http://www.inkscape.org/namespaces/inkscape"
   id="Layer_1"
   data-name="Layer 1"
   viewBox="0 0 72 72"
   version="1.1"
   sodipodi:docname="twitter-icon.svg"
   inkscape:version="0.92.4 (5da689c313, 2019-01-14)">
  <metadata
     id="metadata1442">
    <rdf:RDF>
      <cc:Work
         rdf:about="">
        <dc:format>image/svg+xml</dc:format>
        <dc:type
           rdf:resource="http://purl.org/dc/dcmitype/StillImage" />
      </cc:Work>
    </rdf:RDF>
  </metadata>
  <defs
     id="defs1440" />
  <sodipodi:namedview
     pagecolor="#ffffff"
     bordercolor="#666666"
     borderopacity="1"
     objecttolerance="10"
     gridtolerance="10"
     guidetolerance="10"
     inkscape:pageopacity="0"
     inkscape:pageshadow="2"
     inkscape:window-width="1920"
     inkscape:window-height="1017"
     id="namedview1438"
     showgrid="false"
     inkscape:zoom="11.777778"
     inkscape:cx="36"
     inkscape:cy="36"
     inkscape:window-x="-8"
     inkscape:window-y="-8"
     inkscape:window-maximized="1"
     inkscape:current-layer="Layer_1" />
  <title
     id="title1431">Twitter[2]</title>
  <path
     d="M36,72A36,36,0,1,1,72,36,36,36,0,0,1,36,72ZM36,2.6A33.4,33.4,0,1,0,69.4,36,33.44,33.44,0,0,0,36,2.6Z"
     transform="translate(0 0)"
     style="fill:#243746;fill-opacity:1"
     id="path1433" />
  <path
     d="M30.65,50.49C43.3,50.49,50.22,40,50.22,30.92c0-.3,0-.59,0-.89a14,14,0,0,0,3.43-3.56,13.78,13.78,0,0,1-3.95,1.08,6.92,6.92,0,0,0,3-3.81,13.85,13.85,0,0,1-4.37,1.67,6.88,6.88,0,0,0-11.9,4.7,7,7,0,0,0,.18,1.57A19.55,19.55,0,0,1,22.44,24.5a6.88,6.88,0,0,0,2.13,9.18,6.83,6.83,0,0,1-3.12-.86s0,.06,0,.09A6.88,6.88,0,0,0,27,39.65a6.89,6.89,0,0,1-1.81.24,6.8,6.8,0,0,1-1.29-.13,6.89,6.89,0,0,0,6.43,4.78,13.79,13.79,0,0,1-8.54,2.94,14,14,0,0,1-1.64-.1,19.45,19.45,0,0,0,10.54,3.09"
     transform="translate(0 0)"
     style="fill:#243746;fill-opacity:1"
     id="path1435" />
</svg>
