<?xml version="1.0" encoding="UTF-8" standalone="no"?>
<svg
   xmlns:dc="http://purl.org/dc/elements/1.1/"
   xmlns:cc="http://creativecommons.org/ns#"
   xmlns:rdf="http://www.w3.org/1999/02/22-rdf-syntax-ns#"
   xmlns:svg="http://www.w3.org/2000/svg"
   xmlns="http://www.w3.org/2000/svg"
   xmlns:sodipodi="http://sodipodi.sourceforge.net/DTD/sodipodi-0.dtd"
   xmlns:inkscape="http://www.inkscape.org/namespaces/inkscape"
   version="1.1"
   id="Capa_1"
   x="0px"
   y="0px"
   width="79.002289"
   height="16.845783"
   viewBox="0 0 79.002291 16.845784"
   xml:space="preserve"
   sodipodi:docname="caution-all-in-one.svg"
   inkscape:version="1.0.2-2 (e86c870879, 2021-01-15)"><metadata
     id="metadata47"><rdf:RDF><cc:Work
         rdf:about=""><dc:format>image/svg+xml</dc:format><dc:type
           rdf:resource="http://purl.org/dc/dcmitype/StillImage" /><dc:title /></cc:Work></rdf:RDF></metadata><defs
     id="defs45" /><sodipodi:namedview
     pagecolor="#ffffff"
     bordercolor="#666666"
     borderopacity="1"
     objecttolerance="10"
     gridtolerance="10"
     guidetolerance="10"
     inkscape:pageopacity="0"
     inkscape:pageshadow="2"
     inkscape:window-width="1785"
     inkscape:window-height="941"
     id="namedview43"
     showgrid="false"
     inkscape:snap-intersection-paths="true"
     inkscape:snap-bbox="true"
     inkscape:snap-global="false"
     inkscape:zoom="23.143625"
     inkscape:cx="53.15239"
     inkscape:cy="8.9483351"
     inkscape:window-x="1717"
     inkscape:window-y="18"
     inkscape:window-maximized="0"
     inkscape:current-layer="text849"
     fit-margin-top="0"
     fit-margin-left="0"
     fit-margin-right="0"
     fit-margin-bottom="0"
     inkscape:document-rotation="0" /><g
     id="g10"
     transform="translate(-49.920553,-41.615166)"><g
       aria-label=" Caution"
       id="text849"
       style="font-style:normal;font-variant:normal;font-weight:500;font-stretch:normal;font-size:16px;line-height:1.25;font-family:Roboto;-inkscape-font-specification:'Roboto Medium';fill:#606f7b;fill-opacity:1;stroke:none;stroke-width:1.7784"><path
         d="m 84.313469,52.600426 q -0.171875,1.820312 -1.34375,2.84375 -1.171875,1.015625 -3.117188,1.015625 -1.359375,0 -2.398437,-0.640625 -1.03125,-0.648438 -1.59375,-1.835938 -0.5625,-1.1875 -0.585938,-2.757812 v -1.0625 q 0,-1.609375 0.570313,-2.835938 0.570312,-1.226562 1.632812,-1.890625 1.070313,-0.664062 2.46875,-0.664062 1.882813,0 3.03125,1.023437 1.148438,1.023438 1.335938,2.890625 h -1.96875 q -0.140625,-1.226562 -0.71875,-1.765625 -0.570313,-0.546875 -1.679688,-0.546875 -1.289062,0 -1.984375,0.945313 -0.6875,0.9375 -0.703125,2.757812 v 1.007813 q 0,1.84375 0.65625,2.8125 0.664063,0.96875 1.9375,0.96875 1.164063,0 1.75,-0.523438 0.585938,-0.523437 0.742188,-1.742187 z"
         style="font-style:normal;font-variant:normal;font-weight:500;font-stretch:normal;font-size:16px;font-family:Roboto;-inkscape-font-specification:'Roboto Medium';fill:#606f7b;fill-opacity:1;stroke-width:1.7784"
         id="path848" /><path
         d="m 90.946281,56.303551 q -0.125,-0.242188 -0.21875,-0.789063 -0.90625,0.945313 -2.21875,0.945313 -1.273437,0 -2.078125,-0.726563 -0.804687,-0.726562 -0.804687,-1.796875 0,-1.351562 1,-2.070312 1.007812,-0.726563 2.875,-0.726563 h 1.164062 v -0.554687 q 0,-0.65625 -0.367187,-1.046875 -0.367188,-0.398438 -1.117188,-0.398438 -0.648437,0 -1.0625,0.328125 -0.414062,0.320313 -0.414062,0.820313 h -1.898438 q 0,-0.695313 0.460938,-1.296875 0.460937,-0.609375 1.25,-0.953125 0.796875,-0.34375 1.773437,-0.34375 1.484375,0 2.367188,0.75 0.882812,0.742187 0.90625,2.09375 v 3.8125 q 0,1.140625 0.320312,1.820312 v 0.132813 z m -2.085937,-1.367188 q 0.5625,0 1.054687,-0.273437 0.5,-0.273438 0.75,-0.734375 v -1.59375 h -1.023437 q -1.054688,0 -1.585938,0.367187 -0.53125,0.367188 -0.53125,1.039063 0,0.546875 0.359375,0.875 0.367188,0.320312 0.976563,0.320312 z"
         style="font-style:normal;font-variant:normal;font-weight:500;font-stretch:normal;font-size:16px;font-family:Roboto;-inkscape-font-specification:'Roboto Medium';fill:#606f7b;fill-opacity:1;stroke-width:1.7784"
         id="path850" /><path
         d="m 99.672844,55.475426 q -0.835938,0.984375 -2.375,0.984375 -1.375,0 -2.085938,-0.804688 -0.703125,-0.804687 -0.703125,-2.328125 v -5.476562 h 1.898438 v 5.453125 q 0,1.609375 1.335937,1.609375 1.382813,0 1.867188,-0.992188 v -6.070312 h 1.898436 v 8.453125 h -1.789061 z"
         style="font-style:normal;font-variant:normal;font-weight:500;font-stretch:normal;font-size:16px;font-family:Roboto;-inkscape-font-specification:'Roboto Medium';fill:#606f7b;fill-opacity:1;stroke-width:1.7784"
         id="path852" /><path
         d="m 105.82128,45.795738 v 2.054688 h 1.49219 v 1.40625 h -1.49219 v 4.71875 q 0,0.484375 0.1875,0.703125 0.19531,0.210937 0.6875,0.210937 0.32813,0 0.66406,-0.07813 v 1.46875 q -0.64843,0.179688 -1.25,0.179688 -2.1875,0 -2.1875,-2.414063 v -4.789062 h -1.39062 v -1.40625 h 1.39062 v -2.054688 z"
         style="font-style:normal;font-variant:normal;font-weight:500;font-stretch:normal;font-size:16px;font-family:Roboto;-inkscape-font-specification:'Roboto Medium';fill:#606f7b;fill-opacity:1;stroke-width:1.7784"
         id="path854" /><path
         d="m 110.78222,56.303551 h -1.89844 v -8.453125 h 1.89844 z m -2.01563,-10.648438 q 0,-0.4375 0.27344,-0.726562 0.28125,-0.289063 0.79688,-0.289063 0.51562,0 0.79687,0.289063 0.28125,0.289062 0.28125,0.726562 0,0.429688 -0.28125,0.71875 -0.28125,0.28125 -0.79687,0.28125 -0.51563,0 -0.79688,-0.28125 -0.27344,-0.289062 -0.27344,-0.71875 z"
         style="font-style:normal;font-variant:normal;font-weight:500;font-stretch:normal;font-size:16px;font-family:Roboto;-inkscape-font-specification:'Roboto Medium';fill:#606f7b;fill-opacity:1;stroke-width:1.7784"
         id="path856" /><path
         d="m 112.49316,51.998863 q 0,-1.242187 0.49218,-2.234375 0.49219,-1 1.38282,-1.53125 0.89062,-0.539062 2.04687,-0.539062 1.71094,0 2.77344,1.101562 1.07031,1.101563 1.15625,2.921875 l 0.008,0.445313 q 0,1.25 -0.48437,2.234375 -0.47657,0.984375 -1.375,1.523437 -0.89063,0.539063 -2.0625,0.539063 -1.78907,0 -2.86719,-1.1875 -1.07031,-1.195313 -1.07031,-3.179688 z m 1.89843,0.164063 q 0,1.304687 0.53907,2.046875 0.53906,0.734375 1.5,0.734375 0.96093,0 1.49218,-0.75 0.53907,-0.75 0.53907,-2.195313 0,-1.28125 -0.55469,-2.03125 -0.54688,-0.75 -1.49219,-0.75 -0.92969,0 -1.47656,0.742188 -0.54688,0.734375 -0.54688,2.203125 z"
         style="font-style:normal;font-variant:normal;font-weight:500;font-stretch:normal;font-size:16px;font-family:Roboto;-inkscape-font-specification:'Roboto Medium';fill:#606f7b;fill-opacity:1;stroke-width:1.7784"
         id="path858" /><path
         d="m 123.71972,47.850426 0.0547,0.976562 q 0.9375,-1.132812 2.46093,-1.132812 2.64063,0 2.6875,3.023437 v 5.585938 h -1.89843 v -5.476563 q 0,-0.804687 -0.35157,-1.1875 -0.34375,-0.390625 -1.13281,-0.390625 -1.14844,0 -1.71094,1.039063 v 6.015625 h -1.89843 v -8.453125 z"
         style="font-style:normal;font-variant:normal;font-weight:500;font-stretch:normal;font-size:16px;font-family:Roboto;-inkscape-font-specification:'Roboto Medium';fill:#606f7b;fill-opacity:1;stroke-width:1.7784"
         id="path860" /></g><path
       d="m 58.343445,41.615166 c -4.651509,0 -8.422892,3.772742 -8.422892,8.422891 0,4.652867 3.771383,8.422892 8.422892,8.422892 4.651508,0 8.422891,-3.770025 8.422891,-8.422892 0,-4.650149 -3.771383,-8.422891 -8.422891,-8.422891 z m 0,15.215547 c -3.754028,0 -6.792655,-3.03737 -6.792655,-6.792656 0,-3.752772 3.038762,-6.792654 6.792655,-6.792654 3.752636,0 6.792655,3.038728 6.792655,6.792654 0,3.753961 -3.03737,6.792656 -6.792655,6.792656 z m 1.426457,-3.532181 c 0,0.786555 -0.639902,1.426458 -1.426457,1.426458 -0.786556,0 -1.426458,-0.639903 -1.426458,-1.426458 0,-0.786556 0.639902,-1.426458 1.426458,-1.426458 0.786555,0 1.426457,0.639902 1.426457,1.426458 z m -2.763592,-7.17987 0.230952,4.619005 c 0.01083,0.216923 0.189888,0.387215 0.407049,0.387215 h 1.398268 c 0.217161,0 0.396216,-0.170292 0.407049,-0.387215 l 0.230951,-4.619005 c 0.01165,-0.232785 -0.17396,-0.427904 -0.40705,-0.427904 h -1.860168 c -0.233091,0 -0.4187,0.195119 -0.407051,0.427904 z"
       id="path2-3"
       style="fill:#ff9900;fill-opacity:1;stroke-width:0.0339633" /></g><g
     id="g12"
     transform="translate(-49.920553,-41.615166)" /><g
     id="g14"
     transform="translate(-49.920553,-41.615166)" /><g
     id="g16"
     transform="translate(-49.920553,-41.615166)" /><g
     id="g18"
     transform="translate(-49.920553,-41.615166)" /><g
     id="g20"
     transform="translate(-49.920553,-41.615166)" /><g
     id="g22"
     transform="translate(-49.920553,-41.615166)" /><g
     id="g24"
     transform="translate(-49.920553,-41.615166)" /><g
     id="g26"
     transform="translate(-49.920553,-41.615166)" /><g
     id="g28"
     transform="translate(-49.920553,-41.615166)" /><g
     id="g30"
     transform="translate(-49.920553,-41.615166)" /><g
     id="g32"
     transform="translate(-49.920553,-41.615166)" /><g
     id="g34"
     transform="translate(-49.920553,-41.615166)" /><g
     id="g36"
     transform="translate(-49.920553,-41.615166)" /><g
     id="g38"
     transform="translate(-49.920553,-41.615166)" /><g
     id="g40"
     transform="translate(-49.920553,-41.615166)" /></svg>
