<?xml version="1.0" encoding="UTF-8" standalone="no"?>
<svg
   xmlns:dc="http://purl.org/dc/elements/1.1/"
   xmlns:cc="http://creativecommons.org/ns#"
   xmlns:rdf="http://www.w3.org/1999/02/22-rdf-syntax-ns#"
   xmlns:svg="http://www.w3.org/2000/svg"
   xmlns="http://www.w3.org/2000/svg"
   xmlns:sodipodi="http://sodipodi.sourceforge.net/DTD/sodipodi-0.dtd"
   xmlns:inkscape="http://www.inkscape.org/namespaces/inkscape"
   viewBox="0 0 30 20"
   version="1.1"
   id="svg4"
   sodipodi:docname="exclamation-circle.svg"
   width="30"
   height="20"
   inkscape:version="1.0.2-2 (e86c870879, 2021-01-15)">
  <metadata
     id="metadata10">
    <rdf:RDF>
      <cc:Work
         rdf:about="">
        <dc:format>image/svg+xml</dc:format>
        <dc:type
           rdf:resource="http://purl.org/dc/dcmitype/StillImage" />
        <dc:title></dc:title>
      </cc:Work>
    </rdf:RDF>
  </metadata>
  <defs
     id="defs8" />
  <sodipodi:namedview
     pagecolor="#ffffff"
     bordercolor="#666666"
     borderopacity="1"
     objecttolerance="10"
     gridtolerance="10"
     guidetolerance="10"
     inkscape:pageopacity="0"
     inkscape:pageshadow="2"
     inkscape:window-width="1475"
     inkscape:window-height="714"
     id="namedview6"
     showgrid="false"
     fit-margin-top="0"
     fit-margin-left="0"
     fit-margin-right="0"
     fit-margin-bottom="0"
     inkscape:zoom="8.8388348"
     inkscape:cx="26.475912"
     inkscape:cy="3.6829957"
     inkscape:window-x="0"
     inkscape:window-y="0"
     inkscape:window-maximized="0"
     inkscape:current-layer="svg4" />
  <path
     d="M 20,0 C 14.47754,0 10,4.479153 10,10 10,15.524073 14.47754,20 20,20 25.52246,20 30,15.524073 30,10 30,4.479153 25.52246,0 20,0 Z m 0,18.064516 c -4.456935,0 -8.064516,-3.606089 -8.064516,-8.064516 0,-4.455444 3.607742,-8.0645161 8.064516,-8.0645161 4.455282,0 8.064516,3.6077011 8.064516,8.0645161 0,4.456855 -3.606089,8.064516 -8.064516,8.064516 z m 1.693548,-4.193548 c 0,0.93383 -0.759717,1.693548 -1.693548,1.693548 -0.933831,0 -1.693548,-0.759718 -1.693548,-1.693548 0,-0.933831 0.759717,-1.693549 1.693548,-1.693549 0.933831,0 1.693548,0.759718 1.693548,1.693549 z M 18.4125,5.346734 l 0.274194,5.483871 c 0.01286,0.25754 0.225443,0.459718 0.483266,0.459718 h 1.66008 c 0.257823,0 0.470404,-0.202178 0.483266,-0.459718 L 21.5875,5.346734 C 21.60133,5.070363 21.380968,4.83871 21.104234,4.83871 h -2.208468 c -0.276734,0 -0.497097,0.231653 -0.483266,0.508024 z"
     id="path2"
     style="fill:#ff9900;fill-opacity:1;stroke-width:0.0403226" />
</svg>
