<?xml version="1.0" encoding="UTF-8" standalone="no"?>
<svg
   xmlns:dc="http://purl.org/dc/elements/1.1/"
   xmlns:cc="http://creativecommons.org/ns#"
   xmlns:rdf="http://www.w3.org/1999/02/22-rdf-syntax-ns#"
   xmlns:svg="http://www.w3.org/2000/svg"
   xmlns="http://www.w3.org/2000/svg"
   xmlns:sodipodi="http://sodipodi.sourceforge.net/DTD/sodipodi-0.dtd"
   xmlns:inkscape="http://www.inkscape.org/namespaces/inkscape"
   viewBox="0 0 12 12"
   version="1.1"
   id="svg4"
   sodipodi:docname="external-link-alt-solid.svg"
   width="12"
   height="12"
   inkscape:version="1.0.2-2 (e86c870879, 2021-01-15)">
  <metadata
     id="metadata10">
    <rdf:RDF>
      <cc:Work
         rdf:about="">
        <dc:format>image/svg+xml</dc:format>
        <dc:type
           rdf:resource="http://purl.org/dc/dcmitype/StillImage" />
        <dc:title></dc:title>
      </cc:Work>
    </rdf:RDF>
  </metadata>
  <defs
     id="defs8" />
  <sodipodi:namedview
     pagecolor="#ffffff"
     bordercolor="#666666"
     borderopacity="1"
     objecttolerance="10"
     gridtolerance="10"
     guidetolerance="10"
     inkscape:pageopacity="0"
     inkscape:pageshadow="2"
     inkscape:window-width="1441"
     inkscape:window-height="640"
     id="namedview6"
     showgrid="false"
     fit-margin-top="0"
     fit-margin-left="0"
     fit-margin-right="0"
     fit-margin-bottom="0"
     inkscape:zoom="1.8119611"
     inkscape:cx="115.07345"
     inkscape:cy="62.13074"
     inkscape:window-x="1607"
     inkscape:window-y="332"
     inkscape:window-maximized="0"
     inkscape:current-layer="svg4" />
  <!-- Font Awesome Pro 5.15.4 by @fontawesome - https://fontawesome.com License - https://fontawesome.com/license (Commercial License) -->
  <path
     d="M 10.125,7.5 H 9.375 A 0.375,0.375 0 0 0 9,7.875 V 10.5 H 1.5 V 3 H 4.875 A 0.375,0.375 0 0 0 5.25,2.625 V 1.875 A 0.375,0.375 0 0 0 4.875,1.5 H 1.125 A 1.125,1.125 0 0 0 0,2.625 v 8.25 A 1.125,1.125 0 0 0 1.125,12 h 8.25 A 1.125,1.125 0 0 0 10.5,10.875 v -3 A 0.375,0.375 0 0 0 10.125,7.5 Z M 11.4375,0 H 8.4375004 C 7.9366408,0 7.6863283,0.60726562 8.0390626,0.96093751 L 8.8764845,1.7983594 3.1640625,7.5086722 a 0.5625,0.5625 0 0 0 0,0.796875 l 0.5313281,0.5303902 a 0.5625,0.5625 0 0 0 0.7968751,0 l 5.7096093,-5.7112499 0.837188,0.83625 C 11.390625,4.3125 12,4.0664063 12,3.5625 v -3 A 0.5625,0.5625 0 0 0 11.4375,0 Z"
     id="path2"
     style="fill:#1976d2;stroke-width:0.0234375;fill-opacity:1" />
</svg>
