<?xml version="1.0" encoding="UTF-8" standalone="no"?>
<svg
   xmlns:dc="http://purl.org/dc/elements/1.1/"
   xmlns:cc="http://creativecommons.org/ns#"
   xmlns:rdf="http://www.w3.org/1999/02/22-rdf-syntax-ns#"
   xmlns:svg="http://www.w3.org/2000/svg"
   xmlns="http://www.w3.org/2000/svg"
   xmlns:sodipodi="http://sodipodi.sourceforge.net/DTD/sodipodi-0.dtd"
   xmlns:inkscape="http://www.inkscape.org/namespaces/inkscape"
   viewBox="0 0 14 14"
   version="1.1"
   id="svg4"
   sodipodi:docname="external-link.svg"
   width="14"
   height="14"
   inkscape:version="1.0.2-2 (e86c870879, 2021-01-15)">
  <metadata
     id="metadata10">
    <rdf:RDF>
      <cc:Work
         rdf:about="">
        <dc:format>image/svg+xml</dc:format>
        <dc:type
           rdf:resource="http://purl.org/dc/dcmitype/StillImage" />
        <dc:title></dc:title>
      </cc:Work>
    </rdf:RDF>
  </metadata>
  <defs
     id="defs8" />
  <sodipodi:namedview
     pagecolor="#ffffff"
     bordercolor="#666666"
     borderopacity="1"
     objecttolerance="10"
     gridtolerance="10"
     guidetolerance="10"
     inkscape:pageopacity="0"
     inkscape:pageshadow="2"
     inkscape:window-width="1281"
     inkscape:window-height="433"
     id="namedview6"
     showgrid="false"
     fit-margin-top="0"
     fit-margin-left="0"
     fit-margin-right="0"
     fit-margin-bottom="0"
     inkscape:zoom="1.8119611"
     inkscape:cx="166.22448"
     inkscape:cy="-3.0327526"
     inkscape:window-x="3644"
     inkscape:window-y="254"
     inkscape:window-maximized="0"
     inkscape:current-layer="svg4" />
  <path
     d="M 13.60625,0 9.1437501,0.00464844 A 0.39375,0.39375 0 0 0 8.75,0.39839842 V 1.3092187 A 0.39375,0.39375 0 0 0 9.1516796,1.7029688 L 11.165,1.6285938 11.22133,1.6849218 3.5962519,9.3102734 a 0.32812499,0.32812499 0 0 0 0,0.4648438 l 0.6289063,0.6289068 a 0.32812499,0.32812499 0 0 0 0.4648438,0 L 12.315078,2.7786717 12.371406,2.835 12.297031,4.8483204 A 0.39375,0.39375 0 0 0 12.690781,5.25 h 0.910821 A 0.39375,0.39375 0 0 0 13.995351,4.8562499 L 14,0.39375 A 0.39375,0.39375 0 0 0 13.60625,0 Z M 11.8125,7.875 H 11.375 a 0.4375,0.4375 0 0 0 -0.4375,0.4375 v 4.210938 A 0.1640625,0.1640625 0 0 1 10.773438,12.6875 H 1.4765625 A 0.1640625,0.1640625 0 0 1 1.3125,12.523438 V 3.2265623 A 0.1640625,0.1640625 0 0 1 1.4765625,3.0625 H 5.6875 A 0.4375,0.4375 0 0 0 6.125,2.625 V 2.1875 A 0.4375,0.4375 0 0 0 5.6875,1.75 H 1.3125 A 1.3125,1.3125 0 0 0 0,3.0625 v 9.625 A 1.3125,1.3125 0 0 0 1.3125,14 h 9.625 A 1.3125,1.3125 0 0 0 12.25,12.6875 V 8.3125 A 0.4375,0.4375 0 0 0 11.8125,7.875 Z"
     id="path2"
     style="fill:#1976d2;fill-opacity:1;stroke-width:0.0273438" />
</svg>
