<?xml version="1.0" encoding="UTF-8" standalone="no"?>
<svg
   xmlns:dc="http://purl.org/dc/elements/1.1/"
   xmlns:cc="http://creativecommons.org/ns#"
   xmlns:rdf="http://www.w3.org/1999/02/22-rdf-syntax-ns#"
   xmlns:svg="http://www.w3.org/2000/svg"
   xmlns="http://www.w3.org/2000/svg"
   xmlns:sodipodi="http://sodipodi.sourceforge.net/DTD/sodipodi-0.dtd"
   xmlns:inkscape="http://www.inkscape.org/namespaces/inkscape"
   viewBox="0 0 29.000002 20"
   version="1.1"
   id="svg4"
   sodipodi:docname="lightbulb-fa.svg"
   width="29"
   height="20"
   inkscape:version="1.0.2-2 (e86c870879, 2021-01-15)">
  <metadata
     id="metadata10">
    <rdf:RDF>
      <cc:Work
         rdf:about="">
        <dc:format>image/svg+xml</dc:format>
        <dc:type
           rdf:resource="http://purl.org/dc/dcmitype/StillImage" />
        <dc:title></dc:title>
      </cc:Work>
    </rdf:RDF>
  </metadata>
  <defs
     id="defs8" />
  <sodipodi:namedview
     pagecolor="#ffffff"
     bordercolor="#666666"
     borderopacity="1"
     objecttolerance="10"
     gridtolerance="10"
     guidetolerance="10"
     inkscape:pageopacity="0"
     inkscape:pageshadow="2"
     inkscape:window-width="1597"
     inkscape:window-height="807"
     id="namedview6"
     showgrid="false"
     inkscape:zoom="21.311215"
     inkscape:cx="6.3476912"
     inkscape:cy="13.254575"
     inkscape:window-x="3750"
     inkscape:window-y="372"
     inkscape:window-maximized="0"
     inkscape:current-layer="svg4"
     fit-margin-top="0"
     fit-margin-left="0"
     fit-margin-right="0"
     fit-margin-bottom="0"
     inkscape:document-rotation="0" />
  <path
     d="m 21.091818,3.1255747 c -2.067945,0 -3.749958,1.6820186 -3.749958,3.7499553 0,0.34531 0.279684,0.6250011 0.624993,0.6250011 0.345309,0 0.624993,-0.2796911 0.624993,-0.6250011 0,-1.3788878 1.121863,-2.4999633 2.499972,-2.4999633 0.345308,0 0.62499,-0.2796911 0.62499,-0.6250011 0,-0.3453089 -0.279682,-0.6249909 -0.62499,-0.6249909 z M 17.969197,17.936743 c 0,0.123046 0.03633,0.242963 0.104687,0.345309 l 0.957411,1.439047 C 19.147309,19.895313 19.342619,20 19.551601,20 h 3.080037 c 0.209374,0 0.404684,-0.104689 0.520308,-0.278901 l 0.957411,-1.439047 c 0.06797,-0.102344 0.1043,-0.222653 0.104689,-0.345309 l 0.0019,-1.686699 H 17.967634 Z M 21.091818,6.1e-4 c -3.995268,0 -6.874924,3.2409811 -6.874924,6.87492 0,1.7331878 0.642571,3.314419 1.701544,4.522612 0.649993,0.741788 1.669513,2.29685 2.047634,3.59996 v 0.002 h 1.874979 v -0.005 c -3.9e-4,-0.186334 -0.02812,-0.371488 -0.08398,-0.549603 -0.21836,-0.695698 -0.8914,-2.530052 -2.428492,-4.283939 -0.802335,-0.9152322 -1.231237,-2.0761567 -1.234752,-3.28669 -0.0078,-2.8765222 2.330834,-4.9999372 4.997991,-4.9999372 2.756995,0 4.999939,2.2429416 4.999939,4.9999372 0,1.2097533 -0.439058,2.3769278 -1.236314,3.28669 -1.527718,1.742557 -2.203882,3.573001 -2.425755,4.27573 a 1.8557218,1.8557218 0 0 0 -0.08672,0.558592 v 0.004 h 1.874979 v -0.002 c 0.378119,-1.3035 1.397639,-2.858562 2.047631,-3.59996 C 27.324165,10.189339 27.966737,8.6081078 27.966737,6.87492 27.966737,3.0780961 24.888645,0 21.091819,0 Z"
     id="path2"
     inkscape:connector-curvature="0"
     style="fill:#3778b0;fill-opacity:1;stroke-width:0.0390621" />
</svg>
