<?xml version="1.0" encoding="UTF-8" standalone="no"?>
<svg
   xmlns:dc="http://purl.org/dc/elements/1.1/"
   xmlns:cc="http://creativecommons.org/ns#"
   xmlns:rdf="http://www.w3.org/1999/02/22-rdf-syntax-ns#"
   xmlns:svg="http://www.w3.org/2000/svg"
   xmlns="http://www.w3.org/2000/svg"
   xmlns:sodipodi="http://sodipodi.sourceforge.net/DTD/sodipodi-0.dtd"
   xmlns:inkscape="http://www.inkscape.org/namespaces/inkscape"
   version="1.1"
   id="Capa_1"
   x="0px"
   y="0px"
   width="60.68919"
   height="19"
   viewBox="0 0 60.689191 19"
   xml:space="preserve"
   sodipodi:docname="note-green-alt-all-in-one.svg"
   inkscape:version="1.0.2-2 (e86c870879, 2021-01-15)"><metadata
     id="metadata47"><rdf:RDF><cc:Work
         rdf:about=""><dc:format>image/svg+xml</dc:format><dc:type
           rdf:resource="http://purl.org/dc/dcmitype/StillImage" /><dc:title /></cc:Work></rdf:RDF></metadata><defs
     id="defs45" /><sodipodi:namedview
     pagecolor="#ffffff"
     bordercolor="#666666"
     borderopacity="1"
     objecttolerance="10"
     gridtolerance="10"
     guidetolerance="10"
     inkscape:pageopacity="0"
     inkscape:pageshadow="2"
     inkscape:window-width="1866"
     inkscape:window-height="997"
     id="namedview43"
     showgrid="false"
     inkscape:snap-intersection-paths="true"
     inkscape:snap-bbox="true"
     inkscape:snap-global="false"
     inkscape:zoom="23.143625"
     inkscape:cx="22.683045"
     inkscape:cy="9.9470742"
     inkscape:window-x="3520"
     inkscape:window-y="0"
     inkscape:window-maximized="0"
     inkscape:current-layer="text849"
     fit-margin-top="0"
     fit-margin-left="0"
     fit-margin-right="0"
     fit-margin-bottom="0"
     inkscape:document-rotation="0" /><g
     id="g10"
     transform="translate(-49.894991,-40.616427)"><path
       style="fill:#159758;fill-opacity:1;stroke-width:0.0289883"
       d="m 50.385528,59.474466 c -0.09674,-0.04394 -0.236858,-0.153852 -0.311373,-0.244252 -0.258509,-0.313616 -0.26351,-0.24638 0.24976,-3.357722 l 0.465062,-2.819112 3.429313,-3.413241 c 7.943813,-7.906584 8.529606,-8.483287 8.772995,-8.636856 0.392877,-0.247892 0.848147,-0.380574 1.311244,-0.382146 0.457522,-0.0016 0.76953,0.07663 1.209011,0.302952 0.261233,0.134528 0.468331,0.320989 1.5194,1.367992 0.802103,0.799 1.277335,1.306911 1.39411,1.489972 0.474434,0.743745 0.513229,1.686273 0.102189,2.482707 -0.177284,0.343506 0.173817,-0.01695 -7.923826,8.134904 l -4.213045,4.241249 -2.774897,0.457669 c -1.526193,0.251718 -2.837706,0.457242 -2.914474,0.45672 -0.07677,-5.23e-4 -0.218729,-0.0369 -0.315469,-0.08084 z m 3.956629,-2.102697 1.274649,-0.203073 0.35647,-0.34997 0.356469,-0.349971 v -0.789508 -0.789508 h -0.885773 -0.885773 v -0.885773 -0.885773 h -0.811172 -0.811172 l -0.330017,0.334866 -0.330018,0.334865 -0.227269,1.374635 -0.22727,1.374636 0.536697,0.538853 c 0.407576,0.409214 0.557487,0.534033 0.623113,0.518823 0.04753,-0.01102 0.660009,-0.111411 1.361066,-0.223102 z m 4.148603,-3.076146 c 0.43839,-0.445587 1.84725,-1.865057 3.1308,-3.154379 l 2.333727,-2.34422 -0.550174,-0.550174 -0.550174,-0.550174 -2.301209,2.295876 c -2.222785,2.217635 -2.308326,2.297346 -2.510035,2.339014 -0.633921,0.130949 -1.155724,-0.476109 -0.912787,-1.061922 0.04591,-0.110699 0.771331,-0.866087 2.333308,-2.429683 l 2.266689,-2.26904 -0.535234,-0.533949 c -0.294379,-0.293672 -0.55643,-0.526729 -0.582336,-0.517905 -0.044,0.01499 -6.314386,6.260805 -6.314386,6.289644 0,0.0073 0.349988,0.01323 0.777752,0.01323 h 0.777752 v 0.885773 0.885773 h 0.885773 0.885773 v 0.756148 c 0,0.415881 0.01523,0.756147 0.03384,0.756147 0.01861,0 0.392527,-0.364571 0.830917,-0.810158 z m 7.648782,-7.706704 c 0.510126,-0.525462 0.961529,-1.016114 1.003117,-1.090339 0.103759,-0.185185 0.09907,-0.557455 -0.0098,-0.782456 -0.05428,-0.112134 -0.499608,-0.587544 -1.220638,-1.303099 -1.022345,-1.014582 -1.155556,-1.13208 -1.340206,-1.182119 -0.241905,-0.06555 -0.512414,-0.03269 -0.700353,0.08508 -0.07239,0.04536 -0.54953,0.501466 -1.060307,1.013561 l -0.928686,0.931082 1.641412,1.641839 c 0.902777,0.903011 1.651896,1.641839 1.66471,1.641839 0.01281,0 0.440673,-0.429923 0.950799,-0.955385 z"
       id="path858" /><g
       aria-label="Note"
       id="text849"
       style="font-style:normal;font-variant:normal;font-weight:500;font-stretch:normal;font-size:16px;line-height:1.25;font-family:Roboto;-inkscape-font-specification:'Roboto Medium';fill:#606f7b;fill-opacity:1;stroke:none;stroke-width:1.7784"><path
         d="m 86.88887,55.772659 h -1.976562 l -5.070313,-8.070312 v 8.070312 h -1.976562 v -11.375 h 1.976562 l 5.085938,8.101563 v -8.101563 h 1.960937 z"
         style="font-style:normal;font-variant:normal;font-weight:500;font-stretch:normal;font-size:16px;font-family:Roboto;-inkscape-font-specification:'Roboto Medium';fill:#606f7b;fill-opacity:1;stroke-width:1.7784"
         id="path848" /><path
         d="m 88.685745,51.467972 q 0,-1.242188 0.492188,-2.234375 0.492187,-1 1.382812,-1.53125 0.890625,-0.539063 2.046875,-0.539063 1.710938,0 2.773438,1.101563 1.070312,1.101562 1.15625,2.921875 l 0.0078,0.445312 q 0,1.25 -0.484375,2.234375 -0.476562,0.984375 -1.375,1.523438 -0.890625,0.539062 -2.0625,0.539062 -1.789062,0 -2.867187,-1.1875 -1.070313,-1.195312 -1.070313,-3.179687 z m 1.898438,0.164062 q 0,1.304688 0.539062,2.046875 0.539063,0.734375 1.5,0.734375 0.960938,0 1.492188,-0.75 0.539062,-0.75 0.539062,-2.195312 0,-1.28125 -0.554687,-2.03125 -0.546875,-0.75 -1.492188,-0.75 -0.929687,0 -1.476562,0.742187 -0.546875,0.734375 -0.546875,2.203125 z"
         style="font-style:normal;font-variant:normal;font-weight:500;font-stretch:normal;font-size:16px;font-family:Roboto;-inkscape-font-specification:'Roboto Medium';fill:#606f7b;fill-opacity:1;stroke-width:1.7784"
         id="path850" /><path
         d="m 100.5295,45.264847 v 2.054687 h 1.49218 v 1.40625 h -1.49218 v 4.71875 q 0,0.484375 0.1875,0.703125 0.19531,0.210938 0.6875,0.210938 0.32812,0 0.66406,-0.07813 v 1.46875 q -0.64844,0.179687 -1.25,0.179687 -2.187502,0 -2.187502,-2.414062 v -4.789063 h -1.390625 v -1.40625 h 1.390625 v -2.054687 z"
         style="font-style:normal;font-variant:normal;font-weight:500;font-stretch:normal;font-size:16px;font-family:Roboto;-inkscape-font-specification:'Roboto Medium';fill:#606f7b;fill-opacity:1;stroke-width:1.7784"
         id="path852" /><path
         d="m 107.19356,55.928909 q -1.80469,0 -2.92969,-1.132812 -1.11719,-1.140625 -1.11719,-3.03125 v -0.234375 q 0,-1.265625 0.48438,-2.257813 0.49219,-1 1.375,-1.554687 0.88281,-0.554688 1.96875,-0.554688 1.72656,0 2.66406,1.101563 0.94531,1.101562 0.94531,3.117187 v 0.765625 h -5.52343 q 0.0859,1.046875 0.69531,1.65625 0.61719,0.609375 1.54687,0.609375 1.30469,0 2.125,-1.054687 l 1.02344,0.976562 q -0.50781,0.757813 -1.35937,1.179688 -0.84375,0.414062 -1.89844,0.414062 z M 106.967,48.686722 q -0.78125,0 -1.26563,0.546875 -0.47656,0.546875 -0.60937,1.523437 h 3.61718 v -0.140625 q -0.0625,-0.953125 -0.50781,-1.4375 -0.44531,-0.492187 -1.23437,-0.492187 z"
         style="font-style:normal;font-variant:normal;font-weight:500;font-stretch:normal;font-size:16px;font-family:Roboto;-inkscape-font-specification:'Roboto Medium';fill:#606f7b;fill-opacity:1;stroke-width:1.7784"
         id="path854" /></g></g><g
     id="g12"
     transform="translate(-49.894991,-40.616427)" /><g
     id="g14"
     transform="translate(-49.894991,-40.616427)" /><g
     id="g16"
     transform="translate(-49.894991,-40.616427)" /><g
     id="g18"
     transform="translate(-49.894991,-40.616427)" /><g
     id="g20"
     transform="translate(-49.894991,-40.616427)" /><g
     id="g22"
     transform="translate(-49.894991,-40.616427)" /><g
     id="g24"
     transform="translate(-49.894991,-40.616427)" /><g
     id="g26"
     transform="translate(-49.894991,-40.616427)" /><g
     id="g28"
     transform="translate(-49.894991,-40.616427)" /><g
     id="g30"
     transform="translate(-49.894991,-40.616427)" /><g
     id="g32"
     transform="translate(-49.894991,-40.616427)" /><g
     id="g34"
     transform="translate(-49.894991,-40.616427)" /><g
     id="g36"
     transform="translate(-49.894991,-40.616427)" /><g
     id="g38"
     transform="translate(-49.894991,-40.616427)" /><g
     id="g40"
     transform="translate(-49.894991,-40.616427)" /></svg>
