<?xml version="1.0" encoding="UTF-8" standalone="no"?>
<svg
   xmlns:dc="http://purl.org/dc/elements/1.1/"
   xmlns:cc="http://creativecommons.org/ns#"
   xmlns:rdf="http://www.w3.org/1999/02/22-rdf-syntax-ns#"
   xmlns:svg="http://www.w3.org/2000/svg"
   xmlns="http://www.w3.org/2000/svg"
   xmlns:sodipodi="http://sodipodi.sourceforge.net/DTD/sodipodi-0.dtd"
   xmlns:inkscape="http://www.inkscape.org/namespaces/inkscape"
   version="1.1"
   id="Capa_1"
   x="0px"
   y="0px"
   width="44.735352"
   height="18.868668"
   viewBox="0 0 44.735353 18.868669"
   xml:space="preserve"
   sodipodi:docname="tip-blue-all-in-one.svg"
   inkscape:version="1.0.2-2 (e86c870879, 2021-01-15)"><metadata
     id="metadata47"><rdf:RDF><cc:Work
         rdf:about=""><dc:format>image/svg+xml</dc:format><dc:type
           rdf:resource="http://purl.org/dc/dcmitype/StillImage" /><dc:title /></cc:Work></rdf:RDF></metadata><defs
     id="defs45" /><sodipodi:namedview
     pagecolor="#ffffff"
     bordercolor="#666666"
     borderopacity="1"
     objecttolerance="10"
     gridtolerance="10"
     guidetolerance="10"
     inkscape:pageopacity="0"
     inkscape:pageshadow="2"
     inkscape:window-width="1785"
     inkscape:window-height="941"
     id="namedview43"
     showgrid="false"
     inkscape:snap-intersection-paths="true"
     inkscape:snap-bbox="true"
     inkscape:snap-global="false"
     inkscape:zoom="23.143625"
     inkscape:cx="22.351643"
     inkscape:cy="10.772324"
     inkscape:window-x="1717"
     inkscape:window-y="18"
     inkscape:window-maximized="0"
     inkscape:current-layer="text849"
     fit-margin-top="0"
     fit-margin-left="0"
     fit-margin-right="0"
     fit-margin-bottom="0"
     inkscape:document-rotation="0" /><g
     id="g10"
     transform="translate(-49.939403,-40.695841)"><path
       d="m 56.425451,43.644576 c -1.950973,0 -3.537844,1.586876 -3.537844,3.537841 0,0.325778 0.263864,0.589648 0.589641,0.589648 0.325776,0 0.58964,-0.26387 0.58964,-0.589648 0,-1.300892 1.058406,-2.358554 2.358563,-2.358554 0.325776,0 0.589638,-0.263871 0.589638,-0.589648 0,-0.325777 -0.263862,-0.589639 -0.589638,-0.589639 z m -2.945992,13.973382 c 0,0.116086 0.03428,0.229221 0.09876,0.325777 l 0.903256,1.357649 c 0.109452,0.164359 0.293714,0.263125 0.490875,0.263125 h 2.905816 c 0.197532,0 0.381794,-0.09877 0.490878,-0.263125 l 0.903255,-1.357649 c 0.06412,-0.09655 0.0984,-0.210059 0.09877,-0.325777 l 0.0018,-1.591291 h -5.89488 z m 2.945992,-16.921585 c -3.769278,0 -6.486048,3.057657 -6.486048,6.486044 0,1.635151 0.606224,3.126941 1.605297,4.266793 0.613227,0.699829 1.575078,2.16693 1.931811,3.39633 v 0.0019 h 1.768922 v -0.0047 c -3.69e-4,-0.175794 -0.02653,-0.350475 -0.07922,-0.518515 -0.206009,-0.656347 -0.840979,-2.386941 -2.291127,-4.04162 -0.756951,-0.863463 -1.161593,-1.95872 -1.164908,-3.100781 -0.0073,-2.713813 2.198991,-4.717118 4.715282,-4.717118 2.601047,0 4.71712,2.11607 4.71712,4.717118 0,1.141325 -0.414223,2.242479 -1.166382,3.100781 -1.441304,1.643989 -2.079221,3.370895 -2.288544,4.033875 a 1.7507539,1.7507539 0 0 0 -0.08181,0.526996 v 0.0038 h 1.768922 v -0.0019 c 0.356731,-1.229769 1.318582,-2.696869 1.931808,-3.396331 0.998709,-1.140219 1.604934,-2.632009 1.604934,-4.26716 0,-3.582059 -2.903981,-6.486044 -6.486042,-6.486044 z"
       id="path2"
       inkscape:connector-curvature="0"
       style="fill:#3778b0;fill-opacity:1;stroke-width:0.0368526" /><g
       aria-label=" Tip"
       id="text849"
       style="font-style:normal;font-variant:normal;font-weight:500;font-stretch:normal;font-size:16px;line-height:1.25;font-family:Roboto;-inkscape-font-specification:'Roboto Medium';fill:#606f7b;fill-opacity:1;stroke:none;stroke-width:1.7784"><path
         d="m 80.877876,45.398865 h -3.546875 v 9.78125 h -1.960937 v -9.78125 h -3.515625 v -1.59375 h 9.023437 z"
         style="font-style:normal;font-variant:normal;font-weight:500;font-stretch:normal;font-size:16px;font-family:Roboto;-inkscape-font-specification:'Roboto Medium';fill:#606f7b;fill-opacity:1;stroke-width:1.7784"
         id="path849" /><path
         d="M 84.206001,55.180115 H 82.307564 V 46.72699 h 1.898437 z M 82.190376,44.531677 q 0,-0.4375 0.273438,-0.726562 0.28125,-0.289063 0.796875,-0.289063 0.515625,0 0.796875,0.289063 0.28125,0.289062 0.28125,0.726562 0,0.429688 -0.28125,0.71875 -0.28125,0.28125 -0.796875,0.28125 -0.515625,0 -0.796875,-0.28125 -0.273438,-0.289062 -0.273438,-0.71875 z"
         style="font-style:normal;font-variant:normal;font-weight:500;font-stretch:normal;font-size:16px;font-family:Roboto;-inkscape-font-specification:'Roboto Medium';fill:#606f7b;fill-opacity:1;stroke-width:1.7784"
         id="path851" /><path
         d="m 93.674751,51.03949 q 0,1.960937 -0.890625,3.132812 -0.890625,1.164063 -2.390625,1.164063 -1.390625,0 -2.226562,-0.914063 v 4.007813 H 86.268501 V 46.72699 h 1.75 l 0.07813,0.859375 q 0.835938,-1.015625 2.273438,-1.015625 1.546875,0 2.421875,1.15625 0.882812,1.148437 0.882812,3.195312 z m -1.890625,-0.164063 q 0,-1.265625 -0.507812,-2.007812 -0.5,-0.742188 -1.4375,-0.742188 -1.164063,0 -1.671875,0.960938 v 3.75 q 0.515625,0.984375 1.6875,0.984375 0.90625,0 1.414062,-0.726563 0.515625,-0.734375 0.515625,-2.21875 z"
         style="font-style:normal;font-variant:normal;font-weight:500;font-stretch:normal;font-size:16px;font-family:Roboto;-inkscape-font-specification:'Roboto Medium';fill:#606f7b;fill-opacity:1;stroke-width:1.7784"
         id="path853" /></g></g><g
     id="g12"
     transform="translate(-49.939403,-40.695841)" /><g
     id="g14"
     transform="translate(-49.939403,-40.695841)" /><g
     id="g16"
     transform="translate(-49.939403,-40.695841)" /><g
     id="g18"
     transform="translate(-49.939403,-40.695841)" /><g
     id="g20"
     transform="translate(-49.939403,-40.695841)" /><g
     id="g22"
     transform="translate(-49.939403,-40.695841)" /><g
     id="g24"
     transform="translate(-49.939403,-40.695841)" /><g
     id="g26"
     transform="translate(-49.939403,-40.695841)" /><g
     id="g28"
     transform="translate(-49.939403,-40.695841)" /><g
     id="g30"
     transform="translate(-49.939403,-40.695841)" /><g
     id="g32"
     transform="translate(-49.939403,-40.695841)" /><g
     id="g34"
     transform="translate(-49.939403,-40.695841)" /><g
     id="g36"
     transform="translate(-49.939403,-40.695841)" /><g
     id="g38"
     transform="translate(-49.939403,-40.695841)" /><g
     id="g40"
     transform="translate(-49.939403,-40.695841)" /></svg>
