<?xml version="1.0" encoding="UTF-8" standalone="no"?>
<svg
   xmlns:dc="http://purl.org/dc/elements/1.1/"
   xmlns:cc="http://creativecommons.org/ns#"
   xmlns:rdf="http://www.w3.org/1999/02/22-rdf-syntax-ns#"
   xmlns:svg="http://www.w3.org/2000/svg"
   xmlns="http://www.w3.org/2000/svg"
   xmlns:sodipodi="http://sodipodi.sourceforge.net/DTD/sodipodi-0.dtd"
   xmlns:inkscape="http://www.inkscape.org/namespaces/inkscape"
   id="Layer_1"
   data-name="Layer 1"
   viewBox="0 0 114.97 114.97"
   version="1.1"
   sodipodi:docname="icon-linkedin-bk.svg"
   inkscape:version="1.0.2-2 (e86c870879, 2021-01-15)">
  <metadata
     id="metadata878">
    <rdf:RDF>
      <cc:Work
         rdf:about="">
        <dc:format>image/svg+xml</dc:format>
        <dc:type
           rdf:resource="http://purl.org/dc/dcmitype/StillImage" />
        <dc:title>icon-linkedin-black</dc:title>
      </cc:Work>
    </rdf:RDF>
  </metadata>
  <defs
     id="defs876" />
  <sodipodi:namedview
     pagecolor="#ffffff"
     bordercolor="#666666"
     borderopacity="1"
     objecttolerance="10"
     gridtolerance="10"
     guidetolerance="10"
     inkscape:pageopacity="0"
     inkscape:pageshadow="2"
     inkscape:window-width="1408"
     inkscape:window-height="949"
     id="namedview874"
     showgrid="false"
     inkscape:zoom="2.0527094"
     inkscape:cx="-36.293495"
     inkscape:cy="58.92757"
     inkscape:window-x="3521"
     inkscape:window-y="352"
     inkscape:window-maximized="0"
     inkscape:current-layer="Layer_1"
     inkscape:document-rotation="0" />
  <title
     id="title867">icon-linkedin-black</title>
  <path
     d="M189.1,435.47A57.49,57.49,0,1,1,246.58,378,57.55,57.55,0,0,1,189.1,435.47Zm0-109A51.49,51.49,0,1,0,240.58,378,51.55,51.55,0,0,0,189.1,326.5Z"
     transform="translate(-131.61 -320.5)"
     id="path869"
     style="fill:#101e2c;fill-opacity:1" />
  <path
     d="m 84.569999,82.38 v -20 c 0,-10.73 -5.73,-15.73 -13.369999,-15.73 a 11.52,11.52 0 0 0 -10.46,5.77 v -5 H 49.13 c 0.15,3.28 0,34.94 0,34.94 H 60.74 V 62.87 a 7.94,7.94 0 0 1 0.38,-2.83 6.3500002,6.35 0 0 1 5.999999,-4.25 c 4.200001,0 5.88,3.2 5.88,7.9 V 82.38 H 84.61 Z M 36.89,42.67 c 4,0 6.57,-2.69 6.57,-6 0,-3.31 -2.52,-6 -6.5,-6 -3.98,0 -6.57,2.61 -6.57,6 0,3.39 2.52,6 6.42,6 h 0.07 z M 42.7,82.38 V 47.44 H 31.09 v 34.94 z"
     id="path871"
     style="fill:#101e2c;stroke-width:0.999997;fill-opacity:1" />
</svg>
