<?xml version="1.0" encoding="UTF-8" standalone="no"?>
<svg
   xmlns:dc="http://purl.org/dc/elements/1.1/"
   xmlns:cc="http://creativecommons.org/ns#"
   xmlns:rdf="http://www.w3.org/1999/02/22-rdf-syntax-ns#"
   xmlns:svg="http://www.w3.org/2000/svg"
   xmlns="http://www.w3.org/2000/svg"
   xmlns:sodipodi="http://sodipodi.sourceforge.net/DTD/sodipodi-0.dtd"
   xmlns:inkscape="http://www.inkscape.org/namespaces/inkscape"
   id="Layer_1"
   data-name="Layer 1"
   viewBox="0 0 114.97 114.97"
   version="1.1"
   sodipodi:docname="icon-twitter-bk.svg"
   inkscape:version="1.0.2-2 (e86c870879, 2021-01-15)">
  <metadata
     id="metadata950">
    <rdf:RDF>
      <cc:Work
         rdf:about="">
        <dc:format>image/svg+xml</dc:format>
        <dc:type
           rdf:resource="http://purl.org/dc/dcmitype/StillImage" />
        <dc:title>icon-twitter-black</dc:title>
      </cc:Work>
    </rdf:RDF>
  </metadata>
  <defs
     id="defs948" />
  <sodipodi:namedview
     pagecolor="#ffffff"
     bordercolor="#666666"
     borderopacity="1"
     objecttolerance="10"
     gridtolerance="10"
     guidetolerance="10"
     inkscape:pageopacity="0"
     inkscape:pageshadow="2"
     inkscape:window-width="1072"
     inkscape:window-height="837"
     id="namedview946"
     showgrid="false"
     inkscape:zoom="2.0527094"
     inkscape:cx="-36.293495"
     inkscape:cy="57.485001"
     inkscape:window-x="3554"
     inkscape:window-y="354"
     inkscape:window-maximized="0"
     inkscape:current-layer="Layer_1"
     inkscape:document-rotation="0" />
  <title
     id="title939">icon-twitter-black</title>
  <path
     d="M 57.246589,114.97 A 57.246419,57.246419 0 1 1 114.53284,57.733538 57.306165,57.306165 0 0 1 57.246589,114.97 Z m 0,-108.5381758 A 51.271841,51.271841 0 1 0 108.55826,57.733538 51.331587,51.331587 0 0 0 57.246589,6.4616971 Z"
     id="path941"
     style="fill:#101e2c;stroke-width:0.995763;fill-opacity:1" />
  <path
     d="M 65.620001,33.5 A 13.46,13.46 0 0 0 56.56,47.06 l 0.140001,2.3 -2.32,-0.28 A 37.790001,37.79 0 0 1 32.26,38.18 l -3.08,-3.12 -0.79,2.25 a 13.58,13.58 0 0 0 2.88,13.91 c 1.86,2 1.44,2.25 -1.76,1.08 a 5.4200001,5.42 0 0 0 -2.18,-0.52 c -0.33,0.33 0.79,4.6 1.67,6.3 a 15,15 0 0 0 6.37,6 l 2.28,1.08 h -2.7 c -2.6,0 -2.7,0 -2.41,1 0.93,3.05 4.6,6.3 8.69,7.71 l 2.88,1 -2.51,1.51 a 26,26 0 0 1 -12.46,3.47 13.71,13.71 0 0 0 -3.81,0.38 c 0,0.47 5.67,3.1 9,4.14 A 39.22,39.22 0 0 0 64.820001,80.89 C 71.1,77.18 77.37,69.8 80.3,62.65 c 1.580001,-3.8 3.16,-10.76 3.16,-14.09 0,-2.16 0.140001,-2.44 2.740001,-5 a 31.260001,31.26 0 0 0 3.22,-3.5 c 0.469998,-0.9 0.42,-0.9 -2,-0.09 -3.95,1.41 -4.51,1.22 -2.55,-0.89 1.44,-1.51 3.16,-4.23 3.16,-5 a 2.5300001,2.53 0 0 0 -1.49,0.52 25.5,25.5 0 0 1 -4.09,1.6 L 79.94,37 77.660001,35.44 a 19,19 0 0 0 -3.95,-2.07 15.87,15.87 0 0 0 -8.09,0.13 z"
     id="path943"
     style="fill:#101e2c;stroke-width:1;fill-opacity:1" />
</svg>
